<?xml version="1.0" encoding="UTF-8" standalone="no"?>
<svg
   xmlns:dc="http://purl.org/dc/elements/1.1/"
   xmlns:cc="http://creativecommons.org/ns#"
   xmlns:rdf="http://www.w3.org/1999/02/22-rdf-syntax-ns#"
   xmlns:svg="http://www.w3.org/2000/svg"
   xmlns="http://www.w3.org/2000/svg"
   version="1.1"
   id="svg4599"
   height="282.99994"
   width="609">
  <defs
     id="defs4601" />
  <metadata
     id="metadata4604">
    <rdf:RDF>
      <cc:Work
         rdf:about="">
        <dc:format>image/svg+xml</dc:format>
        <dc:type
           rdf:resource="http://purl.org/dc/dcmitype/StillImage" />
        <dc:title></dc:title>
      </cc:Work>
    </rdf:RDF>
  </metadata>
  <g
     transform="translate(-70.5,-390.86221)"
     id="layer1">
    <g
       id="text19644"
       style="font-style:normal;font-weight:normal;font-size:44.03507233px;line-height:125%;font-family:sans-serif;letter-spacing:0px;word-spacing:0px;fill:#4d4d4d;fill-opacity:1;stroke:none;stroke-width:1px;stroke-linecap:butt;stroke-linejoin:miter;stroke-opacity:1"
       transform="matrix(0.95733731,0,0,1.0445639,2,0)">
      <rect
         ry="3.1725278"
         y="374.18698"
         x="71.552628"
         height="270.92639"
         width="636.1394"
         id="rect4008"
         style="display:inline;fill:#698094;fill-opacity:1;stroke:none" />
      <rect
         ry="0.95733732"
         y="402.9071"
         x="74.686317"
         height="32.549469"
         width="629.87201"
         id="rect3952"
         style="display:inline;fill:#cfd5dd;fill-opacity:1;stroke:none" />
      <path
         id="path3965"
         d="m 144.6721,380.88835 130.57049,0 c 19.84671,0 5.22282,22.01876 26.1141,22.01876 l 0,9.57337 -182.79869,0 0,-9.57337 c 20.89128,0 6.26739,-22.01876 26.1141,-22.01876 z"
         style="display:inline;fill:#cfd5dd;fill-opacity:1;stroke:none" />
      <g
         id="text3967"
         style="font-style:normal;font-variant:normal;font-weight:normal;font-stretch:normal;font-size:9.76762295px;line-height:125%;font-family:FontAwesome;-inkscape-font-specification:FontAwesome;letter-spacing:0px;word-spacing:0px;display:inline;fill:#698094;fill-opacity:1;stroke:none"
         transform="matrix(1.0445639,0,0,0.95733732,-2.0891278,0)">
        <path
           id="path3030"
           d="m 267.57499,411.69577 c 0,-0.13627 -0.0545,-0.27254 -0.15262,-0.37065 l -1.6025,-1.6025 1.6025,-1.6025 c 0.0981,-0.0981 0.15262,-0.23438 0.15262,-0.37065 0,-0.13626 -0.0545,-0.27253 -0.15262,-0.37064 l -0.7413,-0.7413 c -0.0981,-0.0981 -0.23438,-0.15262 -0.37064,-0.15262 -0.13627,0 -0.27254,0.0545 -0.37065,0.15262 l -1.6025,1.6025 -1.6025,-1.6025 c -0.0981,-0.0981 -0.23438,-0.15262 -0.37065,-0.15262 -0.13626,0 -0.27253,0.0545 -0.37064,0.15262 l -0.7413,0.7413 c -0.0981,0.0981 -0.15261,0.23438 -0.15261,0.37064 0,0.13627 0.0545,0.27254 0.15261,0.37065 l 1.6025,1.6025 -1.6025,1.6025 c -0.0981,0.0981 -0.15261,0.23438 -0.15261,0.37065 0,0.13626 0.0545,0.27253 0.15261,0.37064 l 0.7413,0.7413 c 0.0981,0.0981 0.23438,0.15262 0.37064,0.15262 0.13627,0 0.27254,-0.0545 0.37065,-0.15262 l 1.6025,-1.6025 1.6025,1.6025 c 0.0981,0.0981 0.23438,0.15262 0.37065,0.15262 0.13626,0 0.27253,-0.0545 0.37064,-0.15262 l 0.7413,-0.7413 c 0.0981,-0.0981 0.15262,-0.23438 0.15262,-0.37064" />
      </g>
      <g
         id="text3996"
         style="font-style:normal;font-variant:normal;font-weight:normal;font-stretch:normal;font-size:11.18568039px;line-height:125%;font-family:FontAwesome;-inkscape-font-specification:FontAwesome;letter-spacing:0px;word-spacing:0px;display:inline;fill:#cfd5dd;fill-opacity:1;stroke:none"
         transform="matrix(1.0445639,0,0,0.95733732,-2.0891278,0)">
        <path
           id="path3027"
           d="m 297.53234,409.13606 c 0,-0.33082 -0.26841,-0.59923 -0.59923,-0.59923 l -2.59668,0 0,-2.59668 c 0,-0.33082 -0.26841,-0.59923 -0.59923,-0.59923 l -1.19847,0 c -0.33082,0 -0.59923,0.26841 -0.59923,0.59923 l 0,2.59668 -2.59668,0 c -0.33082,0 -0.59923,0.26841 -0.59923,0.59923 l 0,1.19847 c 0,0.33082 0.26841,0.59923 0.59923,0.59923 l 2.59668,0 0,2.59668 c 0,0.33082 0.26841,0.59923 0.59923,0.59923 l 1.19847,0 c 0.33082,0 0.59923,-0.26841 0.59923,-0.59923 l 0,-2.59668 2.59668,0 c 0.33082,0 0.59923,-0.26841 0.59923,-0.59923 l 0,-1.19847" />
      </g>
      <rect
         ry="0.95733732"
         y="408.65112"
         x="94.023849"
         height="21.06142"
         width="310.99899"
         id="rect4212"
         style="display:inline;opacity:1;fill:#ffffff;fill-opacity:1;stroke:none" />
      <ellipse
         ry="14.838728"
         rx="16.190741"
         style="display:inline;fill:#cfd5dd;fill-opacity:1;stroke:none"
         id="path4389"
         cx="91.972511"
         cy="419.13535" />
      <rect
         style="display:inline;opacity:0.9;fill:#ffffff;fill-opacity:1;stroke:none"
         id="rect4704"
         width="128.48135"
         height="21.06142"
         x="411.03589"
         y="408.65112"
         ry="0.95733732" />
      <path
         id="text4232"
         d="m 559.75568,411.76604 c -0.21253,0 -0.37384,0.16819 -0.457,0.32909 l -2.08912,3.85926 -4.63526,0.62825 c -0.231,0.0339 -0.52228,0.13486 -0.52228,0.38892 0,0.15244 0.11762,0.27883 0.2285,0.38892 l 3.36219,2.99168 -0.78342,4.24818 c -0.009,0.0593 -0.0326,0.12023 -0.0326,0.17951 0,0.22017 0.12375,0.41883 0.39171,0.41883 0.12936,0 0.23894,-0.0604 0.35907,-0.11967 l 4.17825,-1.9745 4.14562,1.9745 c 0.11088,0.0593 0.22971,0.11967 0.35906,0.11967 0.26797,0 0.39172,-0.19018 0.39172,-0.41883 0,-0.0593 -0.0234,-0.12023 -0.0326,-0.17951 l -0.78343,-4.24818 3.36219,-2.99168 c 0.12013,-0.11009 0.2285,-0.23648 0.2285,-0.38892 0,-0.25406 -0.30052,-0.35504 -0.52228,-0.38892 l -4.63525,-0.62825 -2.08913,-3.85926 c -0.0832,-0.1609 -0.21183,-0.32909 -0.42436,-0.32909 z m 0,3.3806 1.24042,2.36343 2.83991,0.38891 -2.05649,1.82493 0.48964,2.60276 -2.51348,-1.22659 -2.54612,1.22659 0.48963,-2.60276 -2.05648,-1.82493 2.83991,-0.38891 1.27306,-2.36343 z m -5.64717,2.33351 0.0653,0 c -0.004,0.0115 -0.0309,0.0172 -0.0326,0.0299 l -0.0326,-0.0299 z m 11.19642,0 0.0653,0 -0.0326,0.0299 c -0.002,-0.0126 -0.0288,-0.0184 -0.0326,-0.0299 z m -9.00937,5.98336 c 0.019,0.0134 0.0413,0.0219 0.0653,0.0299 l -0.0979,0.0598 0.0326,-0.0897 z m 6.8876,0 0.0326,0.0897 -0.0979,-0.0598 c 0.0236,-0.008 0.0467,-0.0168 0.0653,-0.0299 z"
         style="font-style:normal;font-variant:normal;font-weight:normal;font-stretch:normal;font-size:15.85188866px;line-height:125%;font-family:FontAwesome;-inkscape-font-specification:FontAwesome;letter-spacing:0px;word-spacing:0px;display:inline;fill:#698094;fill-opacity:1;stroke:none" />
      <g
         id="text4243"
         style="font-style:normal;font-variant:normal;font-weight:normal;font-stretch:normal;font-size:15.0037756px;line-height:125%;font-family:FontAwesome;-inkscape-font-specification:FontAwesome;letter-spacing:0px;word-spacing:0px;display:inline;fill:#698094;fill-opacity:1;stroke:none"
         transform="matrix(1.0445639,0,0,0.95733732,-2.0891278,0)">
        <path
           id="path3018"
           d="m 663.36038,441.25467 c 0,-0.29305 -0.24281,-0.53585 -0.53585,-0.53585 l -11.78868,0 c -0.29304,0 -0.53585,0.2428 -0.53585,0.53585 l 0,1.07169 c 0,0.29305 0.24281,0.53585 0.53585,0.53585 l 11.78868,0 c 0.29304,0 0.53585,-0.2428 0.53585,-0.53585 l 0,-1.07169 m 0,-4.2868 c 0,-0.29304 -0.24281,-0.53585 -0.53585,-0.53585 l -11.78868,0 c -0.29304,0 -0.53585,0.24281 -0.53585,0.53585 l 0,1.0717 c 0,0.29304 0.24281,0.53585 0.53585,0.53585 l 11.78868,0 c 0.29304,0 0.53585,-0.24281 0.53585,-0.53585 l 0,-1.0717 m 0,-4.28679 c 0,-0.29304 -0.24281,-0.53585 -0.53585,-0.53585 l -11.78868,0 c -0.29304,0 -0.53585,0.24281 -0.53585,0.53585 l 0,1.0717 c 0,0.29304 0.24281,0.53585 0.53585,0.53585 l 11.78868,0 c 0.29304,0 0.53585,-0.24281 0.53585,-0.53585 l 0,-1.0717" />
      </g>
      <path
         style="display:inline;fill:#698094;fill-opacity:1;stroke:#697394;stroke-width:1px;stroke-linecap:round;stroke-linejoin:miter;stroke-opacity:1"
         d="m 578.95203,424.26904 0,-11.47264 0,0 0,0"
         id="path4252" />
      <path
         id="path4250"
         d="m 661.9159,424.8678 0,-11.47264 0,0 0,0"
         style="display:inline;fill:#698094;fill-opacity:1;stroke:#697394;stroke-width:1px;stroke-linecap:round;stroke-linejoin:miter;stroke-opacity:1" />
      <g
         id="text4270"
         style="font-style:normal;font-variant:normal;font-weight:normal;font-stretch:normal;font-size:12.39563942px;line-height:125%;font-family:FontAwesome;-inkscape-font-specification:FontAwesome;letter-spacing:0px;word-spacing:0px;display:inline;fill:#698094;fill-opacity:1;stroke:none"
         transform="matrix(1.0445639,0,0,0.95733732,-2.0891278,0)">
        <path
           id="path3021"
           d="m 507.60394,436.51313 c 0,1.70855 -1.39036,3.09891 -3.09891,3.09891 -1.70855,0 -3.09891,-1.39036 -3.09891,-3.09891 0,-1.70855 1.39036,-3.09891 3.09891,-3.09891 1.70855,0 3.09891,1.39036 3.09891,3.09891 m 3.54161,5.75512 c 0,-0.23519 -0.0968,-0.46346 -0.25594,-0.62255 l -2.3726,-2.37261 c 0.5603,-0.80931 0.85774,-1.77772 0.85774,-2.75996 0,-2.69079 -2.17893,-4.86972 -4.86972,-4.86972 -2.69079,0 -4.86972,2.17893 -4.86972,4.86972 0,2.69079 2.17893,4.86971 4.86972,4.86971 0.98224,0 1.95065,-0.29744 2.75997,-0.85773 l 2.3726,2.36568 c 0.1591,0.16602 0.38736,0.26286 0.62255,0.26286 0.4842,0 0.8854,-0.4012 0.8854,-0.8854" />
      </g>
      <ellipse
         ry="10.53071"
         rx="11.490203"
         id="path4706"
         style="display:inline;opacity:1;fill:#698094;fill-opacity:1;stroke:none"
         cx="91.921631"
         cy="419.18185" />
      <g
         id="text4274"
         style="font-style:normal;font-variant:normal;font-weight:normal;font-stretch:normal;font-size:13.84648132px;line-height:125%;font-family:FontAwesome;-inkscape-font-specification:FontAwesome;letter-spacing:0px;word-spacing:0px;display:inline;fill:#fafbfc;fill-opacity:1;stroke:none"
         transform="matrix(1.0445639,0,0,0.95733732,-2.0891278,0)">
        <path
           id="path3014"
           d="m 96.267827,436.8911 c 0,-0.52542 -0.347708,-0.98903 -0.90404,-0.98903 l -5.439689,0 2.263962,-2.26396 c 0.185444,-0.18545 0.293619,-0.44043 0.293619,-0.70315 0,-0.26271 -0.108175,-0.51769 -0.293619,-0.70314 l -0.579513,-0.57178 c -0.185443,-0.18545 -0.432702,-0.29362 -0.695414,-0.29362 -0.262712,0 -0.517698,0.10817 -0.703142,0.29362 l -5.030167,5.02244 c -0.177717,0.18544 -0.285893,0.44043 -0.285893,0.70314 0,0.26271 0.108176,0.5177 0.285893,0.69541 l 5.030167,5.0379 c 0.185444,0.17771 0.44043,0.28589 0.703142,0.28589 0.262712,0 0.517698,-0.10818 0.695414,-0.28589 l 0.579513,-0.58724 c 0.185444,-0.17772 0.293619,-0.4327 0.293619,-0.69542 0,-0.26271 -0.108175,-0.51769 -0.293619,-0.69541 l -2.263962,-2.27169 5.439689,0 c 0.556332,0 0.90404,-0.46361 0.90404,-0.98903 l 0,-0.98904" />
      </g>
      <path
         d="m 650.39069,419.24706 -6.47217,-5.39406 c -0.37811,-0.31513 -0.99017,-0.31518 -1.36824,0 l -6.47217,5.39406 1.66573,0 5.42139,-4.31043 5.51499,4.31043 z m -7.17864,-3.39281 -4.53658,3.69485 c 0,0.0179 -0.004,4.90789 -0.004,4.90789 0,0.31365 0.2286,0.57352 0.50448,0.57352 l 3.02687,0 0,-4.11798 2.01791,0 0,4.11798 3.02685,0 c 0.27589,0 0.50468,-0.25987 0.50448,-0.57352 l -0.003,-4.90789 c 4.8e-4,-0.0179 -4.53636,-3.69485 -4.53636,-3.69485 z"
         style="font-style:normal;font-variant:normal;font-weight:normal;font-stretch:normal;font-size:16.13401794px;line-height:125%;font-family:FontAwesome;-inkscape-font-specification:FontAwesome;letter-spacing:0px;word-spacing:0px;display:inline;fill:#698094;fill-opacity:1;stroke:none"
         id="path4395" />
      <g
         id="text4286"
         style="font-style:normal;font-variant:normal;font-weight:normal;font-stretch:normal;font-size:25.79707146px;line-height:125%;font-family:FontAwesome;-inkscape-font-specification:FontAwesome;letter-spacing:0px;word-spacing:0px;display:inline;fill:#698094;fill-opacity:1;stroke:none"
         transform="matrix(1.0158804,0,0,0.84041175,1093.6367,-112.11767)">
        <path
           style="fill:#698094;fill-opacity:1"
           id="path4291"
           d="m -461.27609,632.3829 c -0.072,-0.17275 -0.23033,-0.27352 -0.41747,-0.27352 l -2.77929,0 0,-5.7839 c 0,-0.25912 -0.20154,-0.46066 -0.46066,-0.46066 l -3.58044,0 c -0.25912,0 -0.46066,0.20155 -0.46066,0.46066 l 0,5.7839 -2.85352,0 c -0.18714,0 -0.34549,0.11517 -0.41747,0.27352 -0.072,0.17275 -0.0432,0.35989 0.072,0.50385 l 5.11047,5.52794 c 0.0864,0.0864 0.21593,0.14396 0.34549,0.14396 l 0,0 c 0.12956,0 0.24473,-0.0576 0.3311,-0.14396 l 5.03849,-5.52794 c 0.11517,-0.14396 0.14396,-0.3311 0.072,-0.50385" />
      </g>
      <path
         d="m 379.87274,416.95066 c 0,-0.29584 -0.26746,-0.54097 -0.59026,-0.54097 l -8.26374,0 c -0.32281,0 -0.59027,0.24513 -0.59027,0.54097 0,0.14371 0.0646,0.27895 0.17524,0.38038 l 4.13187,4.20567 c 0.11067,0.10144 0.25824,0.16061 0.41503,0.16061 0.15679,0 0.30436,-0.0592 0.41503,-0.16061 l 4.13186,-4.20567 c 0.11069,-0.10143 0.17524,-0.23667 0.17524,-0.38038"
         id="path4227"
         style="font-style:normal;font-variant:normal;font-weight:normal;font-stretch:normal;font-size:15.82236767px;line-height:125%;font-family:FontAwesome;-inkscape-font-specification:FontAwesome;letter-spacing:0px;word-spacing:0px;fill:#698094;fill-opacity:1;stroke:none" />
      <g
         id="text4254"
         style="font-style:normal;font-variant:normal;font-weight:normal;font-stretch:normal;font-size:11.05208397px;line-height:125%;font-family:FontAwesome;-inkscape-font-specification:FontAwesome;letter-spacing:0px;word-spacing:0px;display:inline;fill:#698094;fill-opacity:1;stroke:none"
         transform="matrix(1.0445639,0,0,0.95733732,-2.0891278,0)">
        <path
           id="path3024"
           d="m 383.01258,434.45212 c 0,-0.16035 -0.0987,-0.30221 -0.24053,-0.36388 -0.14802,-0.0617 -0.32071,-0.0308 -0.43172,0.0863 l -0.80177,0.79561 c -0.86961,-0.82027 -2.0476,-1.3075 -3.26258,-1.3075 -2.60884,0 -4.73661,2.12777 -4.73661,4.7366 0,2.60884 2.12777,4.73661 4.73661,4.73661 1.41234,0 2.74451,-0.62291 3.64496,-1.70839 0.0617,-0.0802 0.0617,-0.19735 -0.0123,-0.2652 l -0.84494,-0.8511 c -0.0432,-0.037 -0.0987,-0.0555 -0.15419,-0.0555 -0.0555,0.006 -0.11101,0.0308 -0.14185,0.074 -0.60441,0.78326 -1.51103,1.22732 -2.49165,1.22732 -1.73923,0 -3.15774,-1.41852 -3.15774,-3.15774 0,-1.73922 1.41851,-3.15774 3.15774,-3.15774 0.80793,0 1.5727,0.30838 2.15244,0.84495 l -0.85111,0.85111 c -0.11718,0.11101 -0.14802,0.2837 -0.0864,0.42555 0.0617,0.14802 0.20353,0.2467 0.36388,0.2467 l 2.76303,0 c 0.21586,0 0.39471,-0.17886 0.39471,-0.39472 l 0,-2.76302" />
      </g>
      <path
         id="rect4440"
         d="m 596.64669,412.45413 -2.54613,2.33351 -1.56684,0 c -1.15301,0 -2.05649,0.85795 -2.05649,1.91467 l 0,6.10303 c 0,1.05673 0.90348,1.91467 2.05649,1.91467 l 8.22594,0 c 1.153,0 2.08913,-0.85794 2.08913,-1.91467 l 0,-6.10303 c 0,-1.05672 -0.93613,-1.91467 -2.08913,-1.91467 l -1.56685,0 -2.54612,-2.33351 z m -3.72126,4.06868 c 0.54913,0 0.97928,0.39423 0.97928,0.8975 0,0.50328 -0.43015,0.92743 -0.97928,0.92743 -0.54913,0 -1.01192,-0.42415 -1.01192,-0.92743 0,-0.50327 0.46279,-0.8975 1.01192,-0.8975 z m 1.79534,0.29917 6.30003,0 c 0.0881,0 0.16321,0.0688 0.16321,0.14958 l 0,0.92742 c 0,0.0807 -0.0751,0.14959 -0.16321,0.14959 l -6.30003,0 c -0.0881,0 -0.16321,-0.0688 -0.16321,-0.14959 l 0,-0.92742 c 0,-0.0807 0.0751,-0.14958 0.16321,-0.14958 z m -1.79534,2.12409 c 0.54913,0 0.97928,0.42415 0.97928,0.92742 0,0.50327 -0.43015,0.89751 -0.97928,0.89751 -0.54913,0 -1.01192,-0.39424 -1.01192,-0.89751 0,-0.50327 0.46279,-0.92742 1.01192,-0.92742 z m 1.79534,0.29917 6.30003,0 c 0.0881,0 0.16321,0.0688 0.16321,0.14958 l 0,0.92742 c 0,0.0807 -0.0751,0.14959 -0.16321,0.14959 l -6.30003,0 c -0.0881,0 -0.16321,-0.0688 -0.16321,-0.14959 l 0,-0.92742 c 0,-0.0807 0.0751,-0.14958 0.16321,-0.14958 z m -1.79534,2.12409 c 0.54913,0 0.97928,0.42415 0.97928,0.92742 0,0.50327 -0.43015,0.89751 -0.97928,0.89751 -0.54913,0 -1.01192,-0.39424 -1.01192,-0.89751 0,-0.50327 0.46279,-0.92742 1.01192,-0.92742 z m 1.79534,0.32909 6.30003,0 c 0.0881,0 0.16321,0.0688 0.16321,0.14958 l 0,0.8975 c 0,0.0807 -0.0751,0.14959 -0.16321,0.14959 l -6.30003,0 c -0.0881,0 -0.16321,-0.0688 -0.16321,-0.14959 l 0,-0.8975 c 0,-0.0807 0.0751,-0.14958 0.16321,-0.14958 z"
         style="display:inline;fill:#698094;fill-opacity:1;stroke:none" />
      <text
         id="text4555"
         y="442.36218"
         x="109.04169"
         style="font-style:normal;font-variant:normal;font-weight:normal;font-stretch:normal;font-size:10px;line-height:125%;font-family:'Noto Sans CJK TC';-inkscape-font-specification:'Noto Sans CJK TC';text-align:start;letter-spacing:0px;word-spacing:0px;writing-mode:lr-tb;text-anchor:start;display:inline;fill:#000000;fill-opacity:1;stroke:none"
         xml:space="preserve"
         transform="scale(1.0445639,0.95733732)"><tspan
           y="442.36218"
           x="109.04169"
           id="tspan4557">www.netkom.se</tspan></text>
      <path
         id="path19651"
         style="font-style:italic;font-variant:normal;font-weight:bold;font-stretch:normal;font-size:99.07891846px;font-family:sans-serif;-inkscape-font-specification:'sans-serif Bold Italic';fill:#4d4d4d"
         d="m 176.91926,522.07815 -9.82081,0 -3.87027,16.7873 -17.75487,0 3.87027,-16.7873 -34.88081,0 3.1446,-13.6427 43.34703,-41.79892 18.91594,0 -9.72405,42.2827 9.82081,0 -3.04784,13.15892 z m -24.52784,-13.15892 5.90216,-25.54378 -26.36621,25.54378 20.46405,0 z" />
      <path
         id="path19653"
         style="font-style:italic;font-variant:normal;font-weight:bold;font-stretch:normal;font-size:99.07891846px;font-family:sans-serif;-inkscape-font-specification:'sans-serif Bold Italic';fill:#4d4d4d"
         d="m 251.61548,488.79383 q 0,9.96594 -2.32217,19.49648 -2.32216,9.48217 -6.82135,16.40027 -5.1281,7.74055 -11.99783,11.61082 -6.82136,3.87027 -15.57784,3.87027 -12.62676,0 -19.35135,-5.70865 -6.7246,-5.75703 -6.7246,-17.9 0,-10.35298 2.27379,-19.49649 2.27378,-9.19189 6.86973,-16.40027 4.59594,-7.16 11.61081,-11.32054 7.06324,-4.16054 16.11,-4.16054 12.91702,0 19.39973,5.95054 6.53108,5.90216 6.53108,17.65811 z m -18.67406,0.72567 q 0,-5.66027 -2.08027,-8.36946 -2.03189,-2.70918 -6.09567,-2.70918 -3.8219,0 -7.20838,3.43486 -3.33811,3.43486 -5.75703,9.82081 -2.12865,5.56351 -3.24135,12.19135 -1.06432,6.57946 -1.06432,11.94946 0,5.70865 2.03189,8.41784 2.03189,2.66081 6.38594,2.66081 4.16054,0 7.35352,-3.72513 3.19297,-3.77352 5.37,-9.53055 2.03189,-5.37 3.14459,-11.8527 1.16108,-6.4827 1.16108,-12.28811 z" />
      <path
         id="path19655"
         style="font-style:italic;font-variant:normal;font-weight:bold;font-stretch:normal;font-size:99.07891846px;font-family:sans-serif;-inkscape-font-specification:'sans-serif Bold Italic';fill:#4d4d4d"
         d="m 317.7971,522.07815 -9.82081,0 -3.87027,16.7873 -17.75487,0 3.87027,-16.7873 -34.88081,0 3.1446,-13.6427 43.34702,-41.79892 18.91595,0 -9.72405,42.2827 9.82081,0 -3.04784,13.15892 z m -24.52784,-13.15892 5.90216,-25.54378 -26.36621,25.54378 20.46405,0 z" />
      <text
         transform="scale(1.0445639,0.95733732)"
         id="text4303"
         y="604.82782"
         x="238.01759"
         style="font-style:normal;font-weight:normal;font-size:90px;line-height:125%;font-family:sans-serif;letter-spacing:0px;word-spacing:0px;fill:#000000;fill-opacity:1;stroke:none;stroke-width:1px;stroke-linecap:butt;stroke-linejoin:miter;stroke-opacity:1"
         xml:space="preserve"><tspan
           y="604.82782"
           x="238.01759"
           id="tspan4305" /></text>
      <text
         transform="scale(1.0445639,0.95733732)"
         id="text4307"
         y="640.5675"
         x="104.96966"
         style="font-style:normal;font-weight:normal;font-size:90px;line-height:125%;font-family:sans-serif;letter-spacing:0px;word-spacing:0px;fill:#000000;fill-opacity:1;stroke:none;stroke-width:1px;stroke-linecap:butt;stroke-linejoin:miter;stroke-opacity:1"
         xml:space="preserve"><tspan
           style="font-size:70px;fill:#f2f2f2"
           y="640.5675"
           x="104.96966"
           id="tspan4309">hittade inget!</tspan></text>
    </g>
  </g>
</svg>
