<?xml version="1.0" encoding="UTF-8" standalone="no"?>
<svg
   xmlns:dc="http://purl.org/dc/elements/1.1/"
   xmlns:cc="http://creativecommons.org/ns#"
   xmlns:rdf="http://www.w3.org/1999/02/22-rdf-syntax-ns#"
   xmlns:svg="http://www.w3.org/2000/svg"
   xmlns="http://www.w3.org/2000/svg"
   xmlns:sodipodi="http://sodipodi.sourceforge.net/DTD/sodipodi-0.dtd"
   xmlns:inkscape="http://www.inkscape.org/namespaces/inkscape"
   version="1.1"
   id="svg4599"
   height="64.999939"
   width="609"
   inkscape:version="0.91 r13725"
   sodipodi:docname="404.svg">
  <sodipodi:namedview
     pagecolor="#ffffff"
     bordercolor="#666666"
     borderopacity="1"
     objecttolerance="10"
     gridtolerance="10"
     guidetolerance="10"
     inkscape:pageopacity="0"
     inkscape:pageshadow="2"
     inkscape:window-width="2532"
     inkscape:window-height="1388"
     id="namedview43"
     showgrid="false"
     inkscape:zoom="2.8308703"
     inkscape:cx="270.23236"
     inkscape:cy="157.95122"
     inkscape:window-x="28"
     inkscape:window-y="0"
     inkscape:window-maximized="1"
     inkscape:current-layer="layer1" />
  <defs
     id="defs4601" />
  <metadata
     id="metadata4604">
    <rdf:RDF>
      <cc:Work
         rdf:about="">
        <dc:format>image/svg+xml</dc:format>
        <dc:type
           rdf:resource="http://purl.org/dc/dcmitype/StillImage" />
        <dc:title></dc:title>
      </cc:Work>
    </rdf:RDF>
  </metadata>
  <g
     transform="translate(-70.5,-608.86221)"
     id="layer1">
    <g
       id="g4215"
       transform="translate(0,218)">
      <rect
         ry="0.77409053"
         y="390.86221"
         x="70.5"
         height="66.105507"
         width="609"
         id="rect4008"
         style="font-style:normal;font-weight:normal;font-size:medium;line-height:125%;font-family:sans-serif;letter-spacing:0px;word-spacing:0px;display:inline;fill:#698094;fill-opacity:1;stroke:none;stroke-width:1px;stroke-linecap:butt;stroke-linejoin:miter;stroke-opacity:1" />
      <rect
         ry="1"
         y="420.86221"
         x="73.5"
         height="34"
         width="603"
         id="rect3952"
         style="font-style:normal;font-weight:normal;font-size:medium;line-height:125%;font-family:sans-serif;letter-spacing:0px;word-spacing:0px;display:inline;fill:#cfd5dd;fill-opacity:1;stroke:none;stroke-width:1px;stroke-linecap:butt;stroke-linejoin:miter;stroke-opacity:1" />
      <path
         id="path3965"
         d="m 140.5,397.86222 125,0 c 19,0 5,23 25,23 l 0,10 -175,0 0,-10 c 20,0 6,-23 25,-23 z"
         style="font-style:normal;font-weight:normal;font-size:medium;line-height:125%;font-family:sans-serif;letter-spacing:0px;word-spacing:0px;display:inline;fill:#cfd5dd;fill-opacity:1;stroke:none;stroke-width:1px;stroke-linecap:butt;stroke-linejoin:miter;stroke-opacity:1"
         inkscape:connector-curvature="0" />
      <g
         id="text3967"
         style="font-style:normal;font-variant:normal;font-weight:normal;font-stretch:normal;font-size:9.76762295px;line-height:125%;font-family:FontAwesome;-inkscape-font-specification:FontAwesome;letter-spacing:0px;word-spacing:0px;display:inline;fill:#698094;fill-opacity:1;stroke:none;stroke-width:1px;stroke-linecap:butt;stroke-linejoin:miter;stroke-opacity:1">
        <path
           id="path3030"
           d="m 267.57499,411.69577 c 0,-0.13627 -0.0545,-0.27254 -0.15262,-0.37065 l -1.6025,-1.6025 1.6025,-1.6025 c 0.0981,-0.0981 0.15262,-0.23438 0.15262,-0.37065 0,-0.13626 -0.0545,-0.27253 -0.15262,-0.37064 l -0.7413,-0.7413 c -0.0981,-0.0981 -0.23438,-0.15262 -0.37064,-0.15262 -0.13627,0 -0.27254,0.0545 -0.37065,0.15262 l -1.6025,1.6025 -1.6025,-1.6025 c -0.0981,-0.0981 -0.23438,-0.15262 -0.37065,-0.15262 -0.13626,0 -0.27253,0.0545 -0.37064,0.15262 l -0.7413,0.7413 c -0.0981,0.0981 -0.15261,0.23438 -0.15261,0.37064 0,0.13627 0.0545,0.27254 0.15261,0.37065 l 1.6025,1.6025 -1.6025,1.6025 c -0.0981,0.0981 -0.15261,0.23438 -0.15261,0.37065 0,0.13626 0.0545,0.27253 0.15261,0.37064 l 0.7413,0.7413 c 0.0981,0.0981 0.23438,0.15262 0.37064,0.15262 0.13627,0 0.27254,-0.0545 0.37065,-0.15262 l 1.6025,-1.6025 1.6025,1.6025 c 0.0981,0.0981 0.23438,0.15262 0.37065,0.15262 0.13626,0 0.27253,-0.0545 0.37064,-0.15262 l 0.7413,-0.7413 c 0.0981,-0.0981 0.15262,-0.23438 0.15262,-0.37064"
           inkscape:connector-curvature="0" />
      </g>
      <g
         id="text3996"
         style="font-style:normal;font-variant:normal;font-weight:normal;font-stretch:normal;font-size:11.18568039px;line-height:125%;font-family:FontAwesome;-inkscape-font-specification:FontAwesome;letter-spacing:0px;word-spacing:0px;display:inline;fill:#cfd5dd;fill-opacity:1;stroke:none;stroke-width:1px;stroke-linecap:butt;stroke-linejoin:miter;stroke-opacity:1">
        <path
           id="path3027"
           d="m 297.53234,409.13606 c 0,-0.33082 -0.26841,-0.59923 -0.59923,-0.59923 l -2.59668,0 0,-2.59668 c 0,-0.33082 -0.26841,-0.59923 -0.59923,-0.59923 l -1.19847,0 c -0.33082,0 -0.59923,0.26841 -0.59923,0.59923 l 0,2.59668 -2.59668,0 c -0.33082,0 -0.59923,0.26841 -0.59923,0.59923 l 0,1.19847 c 0,0.33082 0.26841,0.59923 0.59923,0.59923 l 2.59668,0 0,2.59668 c 0,0.33082 0.26841,0.59923 0.59923,0.59923 l 1.19847,0 c 0.33082,0 0.59923,-0.26841 0.59923,-0.59923 l 0,-2.59668 2.59668,0 c 0.33082,0 0.59923,-0.26841 0.59923,-0.59923 l 0,-1.19847"
           inkscape:connector-curvature="0" />
      </g>
      <rect
         ry="1"
         y="426.86221"
         x="92.012543"
         height="22"
         width="297.73093"
         id="rect4212"
         style="font-style:normal;font-weight:normal;font-size:medium;line-height:125%;font-family:sans-serif;letter-spacing:0px;word-spacing:0px;display:inline;opacity:1;fill:#ffffff;fill-opacity:1;stroke:none;stroke-width:1px;stroke-linecap:butt;stroke-linejoin:miter;stroke-opacity:1" />
      <circle
         r="15.5"
         style="font-style:normal;font-weight:normal;font-size:medium;line-height:125%;font-family:sans-serif;letter-spacing:0px;word-spacing:0px;display:inline;fill:#cfd5dd;fill-opacity:1;stroke:none;stroke-width:1px;stroke-linecap:butt;stroke-linejoin:miter;stroke-opacity:1"
         id="path4389"
         cx="90.048714"
         cy="437.81366" />
      <rect
         style="font-style:normal;font-weight:normal;font-size:medium;line-height:125%;font-family:sans-serif;letter-spacing:0px;word-spacing:0px;display:inline;opacity:0.9;fill:#ffffff;fill-opacity:1;stroke:none;stroke-width:1px;stroke-linecap:butt;stroke-linejoin:miter;stroke-opacity:1"
         id="rect4704"
         width="122.99999"
         height="22"
         x="395.5"
         y="426.86221"
         ry="1" />
      <path
         id="text4232"
         d="m 537.875,430.11594 c -0.20347,0 -0.35789,0.17569 -0.43751,0.34376 l -1.99999,4.03124 -4.43751,0.65625 c -0.22114,0.0354 -0.49999,0.14087 -0.49999,0.40625 0,0.15923 0.1126,0.29125 0.21875,0.40625 l 3.21875,3.125 -0.75,4.4375 c -0.009,0.0619 -0.0312,0.12559 -0.0312,0.18751 0,0.22998 0.11847,0.43749 0.375,0.43749 0.12384,0 0.22875,-0.0631 0.34375,-0.125 l 4,-2.06249 3.96875,2.06249 c 0.10615,0.0619 0.21991,0.125 0.34374,0.125 0.25654,0 0.37501,-0.19865 0.37501,-0.43749 0,-0.062 -0.0224,-0.12559 -0.0312,-0.18751 l -0.75,-4.4375 3.21875,-3.125 c 0.115,-0.115 0.21875,-0.24702 0.21875,-0.40625 0,-0.26538 -0.2877,-0.37086 -0.5,-0.40625 l -4.4375,-0.65625 -2,-4.03124 c -0.0797,-0.16807 -0.20279,-0.34376 -0.40626,-0.34376 z m 0,3.53125 1.1875,2.46876 2.71875,0.40624 -1.96876,1.90625 0.46876,2.71875 -2.40625,-1.28125 -2.4375,1.28125 0.46874,-2.71875 -1.96874,-1.90625 2.71875,-0.40624 1.21875,-2.46876 z m -5.40625,2.4375 0.0625,0 c -0.004,0.012 -0.0296,0.018 -0.0312,0.0312 l -0.0312,-0.0312 z m 10.71875,0 0.0625,0 -0.0312,0.0312 c -0.002,-0.0132 -0.0276,-0.0192 -0.0312,-0.0312 z m -8.62501,6.25001 c 0.0182,0.014 0.0395,0.0229 0.0625,0.0312 l -0.0937,0.0625 0.0312,-0.0937 z m 6.59376,0 0.0312,0.0937 -0.0937,-0.0625 c 0.0226,-0.008 0.0447,-0.0175 0.0625,-0.0312 z"
         style="font-style:normal;font-variant:normal;font-weight:normal;font-stretch:normal;font-size:15.85188866px;line-height:125%;font-family:FontAwesome;-inkscape-font-specification:FontAwesome;letter-spacing:0px;word-spacing:0px;display:inline;fill:#698094;fill-opacity:1;stroke:none;stroke-width:1px;stroke-linecap:butt;stroke-linejoin:miter;stroke-opacity:1"
         inkscape:connector-curvature="0" />
      <g
         id="text4243"
         style="font-style:normal;font-variant:normal;font-weight:normal;font-stretch:normal;font-size:15.0037756px;line-height:125%;font-family:FontAwesome;-inkscape-font-specification:FontAwesome;letter-spacing:0px;word-spacing:0px;display:inline;fill:#698094;fill-opacity:1;stroke:none;stroke-width:1px;stroke-linecap:butt;stroke-linejoin:miter;stroke-opacity:1">
        <path
           id="path3018"
           d="m 663.36038,441.25467 c 0,-0.29305 -0.24281,-0.53585 -0.53585,-0.53585 l -11.78868,0 c -0.29304,0 -0.53585,0.2428 -0.53585,0.53585 l 0,1.07169 c 0,0.29305 0.24281,0.53585 0.53585,0.53585 l 11.78868,0 c 0.29304,0 0.53585,-0.2428 0.53585,-0.53585 l 0,-1.07169 m 0,-4.2868 c 0,-0.29304 -0.24281,-0.53585 -0.53585,-0.53585 l -11.78868,0 c -0.29304,0 -0.53585,0.24281 -0.53585,0.53585 l 0,1.0717 c 0,0.29304 0.24281,0.53585 0.53585,0.53585 l 11.78868,0 c 0.29304,0 0.53585,-0.24281 0.53585,-0.53585 l 0,-1.0717 m 0,-4.28679 c 0,-0.29304 -0.24281,-0.53585 -0.53585,-0.53585 l -11.78868,0 c -0.29304,0 -0.53585,0.24281 -0.53585,0.53585 l 0,1.0717 c 0,0.29304 0.24281,0.53585 0.53585,0.53585 l 11.78868,0 c 0.29304,0 0.53585,-0.24281 0.53585,-0.53585 l 0,-1.0717"
           inkscape:connector-curvature="0" />
      </g>
      <path
         style="font-style:normal;font-weight:normal;font-size:medium;line-height:125%;font-family:sans-serif;letter-spacing:0px;word-spacing:0px;display:inline;fill:#698094;fill-opacity:1;stroke:#697394;stroke-width:1px;stroke-linecap:round;stroke-linejoin:miter;stroke-opacity:1"
         d="m 556.25238,443.17612 0,-11.9839 0,0 0,0"
         id="path4252"
         inkscape:connector-curvature="0" />
      <path
         id="path4250"
         d="m 635.67679,443.80157 0,-11.98391 0,0 0,0"
         style="font-style:normal;font-weight:normal;font-size:medium;line-height:125%;font-family:sans-serif;letter-spacing:0px;word-spacing:0px;display:inline;fill:#698094;fill-opacity:1;stroke:#697394;stroke-width:1px;stroke-linecap:round;stroke-linejoin:miter;stroke-opacity:1"
         inkscape:connector-curvature="0" />
      <g
         id="text4270"
         style="font-style:normal;font-variant:normal;font-weight:normal;font-stretch:normal;font-size:12.39563942px;line-height:125%;font-family:FontAwesome;-inkscape-font-specification:FontAwesome;letter-spacing:0px;word-spacing:0px;display:inline;fill:#698094;fill-opacity:1;stroke:none;stroke-width:1px;stroke-linecap:butt;stroke-linejoin:miter;stroke-opacity:1">
        <path
           id="path3021"
           d="m 507.60394,436.51313 c 0,1.70855 -1.39036,3.09891 -3.09891,3.09891 -1.70855,0 -3.09891,-1.39036 -3.09891,-3.09891 0,-1.70855 1.39036,-3.09891 3.09891,-3.09891 1.70855,0 3.09891,1.39036 3.09891,3.09891 m 3.54161,5.75512 c 0,-0.23519 -0.0968,-0.46346 -0.25594,-0.62255 l -2.3726,-2.37261 c 0.5603,-0.80931 0.85774,-1.77772 0.85774,-2.75996 0,-2.69079 -2.17893,-4.86972 -4.86972,-4.86972 -2.69079,0 -4.86972,2.17893 -4.86972,4.86972 0,2.69079 2.17893,4.86971 4.86972,4.86971 0.98224,0 1.95065,-0.29744 2.75997,-0.85773 l 2.3726,2.36568 c 0.1591,0.16602 0.38736,0.26286 0.62255,0.26286 0.4842,0 0.8854,-0.4012 0.8854,-0.8854"
           inkscape:connector-curvature="0" />
      </g>
      <circle
         r="11"
         id="path4706"
         style="font-style:normal;font-weight:normal;font-size:medium;line-height:125%;font-family:sans-serif;letter-spacing:0px;word-spacing:0px;display:inline;opacity:1;fill:#698094;fill-opacity:1;stroke:none;stroke-width:1px;stroke-linecap:butt;stroke-linejoin:miter;stroke-opacity:1"
         cx="90.000008"
         cy="437.86224" />
      <g
         id="text4274"
         style="font-style:normal;font-variant:normal;font-weight:normal;font-stretch:normal;font-size:13.84648132px;line-height:125%;font-family:FontAwesome;-inkscape-font-specification:FontAwesome;letter-spacing:0px;word-spacing:0px;display:inline;fill:#fafbfc;fill-opacity:1;stroke:none;stroke-width:1px;stroke-linecap:butt;stroke-linejoin:miter;stroke-opacity:1">
        <path
           id="path3014"
           d="m 96.267827,436.8911 c 0,-0.52542 -0.347708,-0.98903 -0.90404,-0.98903 l -5.439689,0 2.263962,-2.26396 c 0.185444,-0.18545 0.293619,-0.44043 0.293619,-0.70315 0,-0.26271 -0.108175,-0.51769 -0.293619,-0.70314 l -0.579513,-0.57178 c -0.185443,-0.18545 -0.432702,-0.29362 -0.695414,-0.29362 -0.262712,0 -0.517698,0.10817 -0.703142,0.29362 l -5.030167,5.02244 c -0.177717,0.18544 -0.285893,0.44043 -0.285893,0.70314 0,0.26271 0.108176,0.5177 0.285893,0.69541 l 5.030167,5.0379 c 0.185444,0.17771 0.44043,0.28589 0.703142,0.28589 0.262712,0 0.517698,-0.10818 0.695414,-0.28589 l 0.579513,-0.58724 c 0.185444,-0.17772 0.293619,-0.4327 0.293619,-0.69542 0,-0.26271 -0.108175,-0.51769 -0.293619,-0.69541 l -2.263962,-2.27169 5.439689,0 c 0.556332,0 0.90404,-0.46361 0.90404,-0.98903 l 0,-0.98904"
           inkscape:connector-curvature="0" />
      </g>
      <path
         d="m 624.64327,437.93034 -6.19605,-5.63444 c -0.36198,-0.32917 -0.94792,-0.32922 -1.30986,0 l -6.19605,5.63444 1.59466,0 5.1901,-4.50252 5.27971,4.50252 z m -6.87238,-3.544 -4.34303,3.8595 c 0,0.0187 -0.004,5.12661 -0.004,5.12661 0,0.32763 0.21884,0.59908 0.48295,0.59908 l 2.89774,0 0,-4.3015 1.93182,0 0,4.3015 2.89772,0 c 0.26412,0 0.48315,-0.27145 0.48295,-0.59908 l -0.003,-5.12661 c 4.6e-4,-0.0187 -4.34282,-3.8595 -4.34282,-3.8595 z"
         style="font-style:normal;font-variant:normal;font-weight:normal;font-stretch:normal;font-size:16.13401794px;line-height:125%;font-family:FontAwesome;-inkscape-font-specification:FontAwesome;letter-spacing:0px;word-spacing:0px;display:inline;fill:#698094;fill-opacity:1;stroke:none;stroke-width:1px;stroke-linecap:butt;stroke-linejoin:miter;stroke-opacity:1"
         id="path4395"
         inkscape:connector-curvature="0" />
      <g
         id="text4286"
         style="font-style:normal;font-variant:normal;font-weight:normal;font-stretch:normal;font-size:25.79707146px;line-height:125%;font-family:FontAwesome;-inkscape-font-specification:FontAwesome;letter-spacing:0px;word-spacing:0px;display:inline;fill:#698094;fill-opacity:1;stroke:none;stroke-width:1px;stroke-linecap:butt;stroke-linejoin:miter;stroke-opacity:1"
         transform="matrix(0.97254021,0,0,0.87786378,1048.9792,-117.11407)">
        <path
           style="fill:#698094;fill-opacity:1"
           id="path4291"
           d="m -461.27609,632.3829 c -0.072,-0.17275 -0.23033,-0.27352 -0.41747,-0.27352 l -2.77929,0 0,-5.7839 c 0,-0.25912 -0.20154,-0.46066 -0.46066,-0.46066 l -3.58044,0 c -0.25912,0 -0.46066,0.20155 -0.46066,0.46066 l 0,5.7839 -2.85352,0 c -0.18714,0 -0.34549,0.11517 -0.41747,0.27352 -0.072,0.17275 -0.0432,0.35989 0.072,0.50385 l 5.11047,5.52794 c 0.0864,0.0864 0.21593,0.14396 0.34549,0.14396 l 0,0 c 0.12956,0 0.24473,-0.0576 0.3311,-0.14396 l 5.03849,-5.52794 c 0.11517,-0.14396 0.14396,-0.3311 0.072,-0.50385"
           inkscape:connector-curvature="0" />
      </g>
      <path
         d="m 365.66635,435.53161 c 0,-0.30903 -0.25605,-0.56508 -0.56508,-0.56508 l -7.91119,0 c -0.30904,0 -0.56508,0.25605 -0.56508,0.56508 0,0.15011 0.0618,0.29138 0.16776,0.39733 l 3.95559,4.39309 c 0.10595,0.10596 0.24722,0.16777 0.39733,0.16777 0.1501,0 0.29137,-0.0618 0.39732,-0.16777 l 3.95558,-4.39309 c 0.10597,-0.10595 0.16777,-0.24722 0.16777,-0.39733"
         id="path4227"
         style="font-style:normal;font-variant:normal;font-weight:normal;font-stretch:normal;font-size:15.82236767px;line-height:125%;font-family:FontAwesome;-inkscape-font-specification:FontAwesome;letter-spacing:0px;word-spacing:0px;fill:#698094;fill-opacity:1;stroke:none;stroke-width:1px;stroke-linecap:butt;stroke-linejoin:miter;stroke-opacity:1"
         inkscape:connector-curvature="0" />
      <g
         id="text4254"
         style="font-style:normal;font-variant:normal;font-weight:normal;font-stretch:normal;font-size:11.05208397px;line-height:125%;font-family:FontAwesome;-inkscape-font-specification:FontAwesome;letter-spacing:0px;word-spacing:0px;display:inline;fill:#698094;fill-opacity:1;stroke:none;stroke-width:1px;stroke-linecap:butt;stroke-linejoin:miter;stroke-opacity:1">
        <path
           id="path3024"
           d="m 383.01258,434.45212 c 0,-0.16035 -0.0987,-0.30221 -0.24053,-0.36388 -0.14802,-0.0617 -0.32071,-0.0308 -0.43172,0.0863 l -0.80177,0.79561 c -0.86961,-0.82027 -2.0476,-1.3075 -3.26258,-1.3075 -2.60884,0 -4.73661,2.12777 -4.73661,4.7366 0,2.60884 2.12777,4.73661 4.73661,4.73661 1.41234,0 2.74451,-0.62291 3.64496,-1.70839 0.0617,-0.0802 0.0617,-0.19735 -0.0123,-0.2652 l -0.84494,-0.8511 c -0.0432,-0.037 -0.0987,-0.0555 -0.15419,-0.0555 -0.0555,0.006 -0.11101,0.0308 -0.14185,0.074 -0.60441,0.78326 -1.51103,1.22732 -2.49165,1.22732 -1.73923,0 -3.15774,-1.41852 -3.15774,-3.15774 0,-1.73922 1.41851,-3.15774 3.15774,-3.15774 0.80793,0 1.5727,0.30838 2.15244,0.84495 l -0.85111,0.85111 c -0.11718,0.11101 -0.14802,0.2837 -0.0864,0.42555 0.0617,0.14802 0.20353,0.2467 0.36388,0.2467 l 2.76303,0 c 0.21586,0 0.39471,-0.17886 0.39471,-0.39472 l 0,-2.76302"
           inkscape:connector-curvature="0" />
      </g>
      <path
         id="rect4440"
         d="m 573.19214,430.83469 -2.43751,2.4375 -1.49999,0 c -1.10382,0 -1.96876,0.89619 -1.96876,2 l 0,6.375 c 0,1.10383 0.86494,2 1.96876,2 l 7.875,0 c 1.10381,0 2,-0.89617 2,-2 l 0,-6.375 c 0,-1.10381 -0.89619,-2 -2,-2 l -1.50001,0 -2.43749,-2.4375 z m -3.5625,4.25 c 0.5257,0 0.9375,0.4118 0.9375,0.9375 0,0.52571 -0.4118,0.96876 -0.9375,0.96876 -0.52571,0 -0.96875,-0.44305 -0.96875,-0.96876 0,-0.5257 0.44304,-0.9375 0.96875,-0.9375 z m 1.71874,0.3125 6.03126,0 c 0.0843,0 0.15624,0.0719 0.15624,0.15625 l 0,0.96875 c 0,0.0843 -0.0719,0.15625 -0.15624,0.15625 l -6.03126,0 c -0.0843,0 -0.15624,-0.0719 -0.15624,-0.15625 l 0,-0.96875 c 0,-0.0843 0.0719,-0.15625 0.15624,-0.15625 z m -1.71874,2.21875 c 0.5257,0 0.9375,0.44305 0.9375,0.96875 0,0.5257 -0.4118,0.93751 -0.9375,0.93751 -0.52571,0 -0.96875,-0.41181 -0.96875,-0.93751 0,-0.5257 0.44304,-0.96875 0.96875,-0.96875 z m 1.71874,0.3125 6.03126,0 c 0.0843,0 0.15624,0.0719 0.15624,0.15625 l 0,0.96875 c 0,0.0843 -0.0719,0.15625 -0.15624,0.15625 l -6.03126,0 c -0.0843,0 -0.15624,-0.0719 -0.15624,-0.15625 l 0,-0.96875 c 0,-0.0843 0.0719,-0.15625 0.15624,-0.15625 z m -1.71874,2.21875 c 0.5257,0 0.9375,0.44305 0.9375,0.96875 0,0.5257 -0.4118,0.93751 -0.9375,0.93751 -0.52571,0 -0.96875,-0.41181 -0.96875,-0.93751 0,-0.5257 0.44304,-0.96875 0.96875,-0.96875 z m 1.71874,0.34376 6.03126,0 c 0.0843,0 0.15624,0.0719 0.15624,0.15624 l 0,0.9375 c 0,0.0843 -0.0719,0.15625 -0.15624,0.15625 l -6.03126,0 c -0.0843,0 -0.15624,-0.0719 -0.15624,-0.15625 l 0,-0.9375 c 0,-0.0843 0.0719,-0.15624 0.15624,-0.15624 z"
         style="font-style:normal;font-weight:normal;font-size:medium;line-height:125%;font-family:sans-serif;letter-spacing:0px;word-spacing:0px;display:inline;fill:#698094;fill-opacity:1;stroke:none;stroke-width:1px;stroke-linecap:butt;stroke-linejoin:miter;stroke-opacity:1"
         inkscape:connector-curvature="0" />
      <text
         id="text4555"
         y="442.36218"
         x="111.04169"
         style="font-style:normal;font-variant:normal;font-weight:normal;font-stretch:normal;font-size:10px;line-height:125%;font-family:'Noto Sans CJK TC';-inkscape-font-specification:'Noto Sans CJK TC';text-align:start;letter-spacing:0px;word-spacing:0px;writing-mode:lr-tb;text-anchor:start;display:inline;fill:#000000;fill-opacity:1;stroke:none;stroke-width:1px;stroke-linecap:butt;stroke-linejoin:miter;stroke-opacity:1"
         xml:space="preserve"
         sodipodi:linespacing="125%"><tspan
           y="442.36218"
           x="111.04169"
           id="tspan4557">www.netkom.se/ ???</tspan></text>
    </g>
    <text
       sodipodi:linespacing="125%"
       xml:space="preserve"
       style="font-style:normal;font-weight:normal;font-size:90px;line-height:125%;font-family:sans-serif;letter-spacing:0px;word-spacing:0px;fill:#000000;fill-opacity:1;stroke:none;stroke-width:1px;stroke-linecap:butt;stroke-linejoin:miter;stroke-opacity:1"
       x="240.01759"
       y="604.82782"
       id="text4303"><tspan
         id="tspan4305"
         x="240.01759"
         y="604.82782" /></text>
    <flowRoot
       xml:space="preserve"
       id="flowRoot4207"
       style="font-style:normal;font-weight:normal;font-size:25px;line-height:125%;font-family:sans-serif;letter-spacing:0px;word-spacing:0px;fill:#000000;fill-opacity:1;stroke:none;stroke-width:1px;stroke-linecap:butt;stroke-linejoin:miter;stroke-opacity:1"
       transform="translate(70.5,553.86221)"><flowRegion
         id="flowRegion4209"><rect
           id="rect4211"
           width="676.11719"
           height="104.20824"
           x="-32.49884"
           y="-179.55458" /></flowRegion><flowPara
         id="flowPara4213"></flowPara></flowRoot>  </g>
</svg>
