<?xml version="1.0" encoding="UTF-8" standalone="no"?>
<svg id="svg2" xmlns:rdf="http://www.w3.org/1999/02/22-rdf-syntax-ns#" xmlns="http://www.w3.org/2000/svg" viewBox="0 0 600 128" height="128" width="600" version="1.1" xmlns:cc="http://creativecommons.org/ns#" xmlns:xlink="http://www.w3.org/1999/xlink" xmlns:dc="http://purl.org/dc/elements/1.1/">
 <defs id="0">
  <filter id="C" y="-.145" width="1.294" x="-.147" height="1.29">
   <feGaussianBlur id="Q" stdDeviation="1.81881"/>
  </filter>
  <filter id="D">
   <feGaussianBlur id="R" stdDeviation="2.58594"/>
  </filter>
  <radialGradient id="E" gradientUnits="userSpaceOnUse" cy="22.254" cx="89.51" gradientTransform="matrix(1 0 0 .97468 0 .43911)" r="18.279">
   <stop id="M" offset="0"/>
   <stop id="N" stop-opacity=".536" offset="1"/>
  </radialGradient>
  <linearGradient id="F-3-5" y2="25.1" gradientUnits="userSpaceOnUse" y1="14.793" gradientTransform="matrix(1.0904 0 0 .95677 -.45573 2.3328)" x2="86.82" x1="98.33">
   <stop id="O" offset="0"/>
   <stop id="P" stop-opacity="0" stop-color="#ddd" offset="1"/>
  </linearGradient>
 </defs>
 <g id="g4168" transform="translate(228)">
  <path id="1" opacity="0.809" d="m20.094 4.1185v118h88.844v-86.156l-0.59375-0.625c0.21045 0.14439 0.41688 0.30216 0.625 0.4375l-30.886-31.626c0.05654 0.079597 0.09993 0.1703 0.15625 0.25l-0.25-0.28125h-57.906z" transform="matrix(.96715 0 0 .97126 1.9955 2.2887)" filter="url(#D)"/>
  <g id="g4160">
   <path id="2" fill="#e6e6e6" d="m20.395 4.735v114.83h97.933v-83.845l-34.103-30.989h-63.831z"/>
   <path id="4" opacity="0.505" d="m81.698 28.31 0.13516-8.351c0.068-6.6-0.877-11.548-4.047-16.012l2.576-0.0311 27.498 25.615c-4.068-2.6454-9.6212-0.79124-16.862-1.0256l-9.3028-0.19573z" transform="matrix(1.0161 0 0 1.1122 2.0564 -.67864)" filter="url(#C)" fill="url(#E)"/>
   <path id="path4732" fill="#333" d="m26.722 105.56c-2.6483-1.3109-3.7096-4.7872-2.2886-7.4961 1.5623-2.9781 6.0949-3.7675 8.2105-1.4298 0.64641 0.71428 0.86688 0.67646 0.96374-0.16529 0.04809-0.41782 0.23568-0.70183 0.46358-0.70183 0.32469 0 0.39335 0.74905 0.4522 4.9326 0.06474 4.604 0.23099 5.3104-0.19106 5.23-0.24871-0.0474-0.68066-0.72695-0.72551-1.0413-0.04487-0.31439-0.11945-0.57162-0.16577-0.57162-0.04631 0-0.68152 0.40196-1.4116 0.89324-1.1278 0.75893-1.5442 0.89322-2.7692 0.89305-0.95624-0.00013-1.8111-0.18299-2.5383-0.54294zm4.6686-0.95741c2.5282-1.4583 2.8522-5.1912 0.6266-7.2196-1.7805-1.6228-4.1818-1.5478-5.9143 0.18469-3.6214 3.6214 0.86281 9.5873 5.2877 7.0349zm5.8376 1.133c-0.93728-0.40789-1.2745-0.85138-0.91821-1.2076 0.16945-0.16945 0.51652-0.1193 1.037 0.14984 1.0921 0.56475 1.7504 0.50581 2.4781-0.22189 1.2873-1.2873 0.65978-2.9214-1.4567-3.793-1.4634-0.60264-2.0003-1.285-2.0003-2.5422 0-1.2958 0.4579-2.0367 1.5343-2.4826 1.0715-0.44385 2.8043 0.0363 2.8043 0.77714 0 0.57351-0.70901 0.32955-1.597-0.07506-0.91775-0.41815-1.3501 0.19084-1.7098 1.0593-0.43916 1.0602-0.05024 1.626 1.7932 2.6086 0.91972 0.49021 1.6948 1.1113 1.9127 1.5328 0.81463 1.5753 0.21343 3.3347-1.4299 4.1845-0.89056 0.46053-1.4079 0.46267-2.4478 0.0102zm8.4552 0.008c-3.8333-1.6989-4.3114-7.1455-0.83365-9.4984 1.4957-1.0119 2.9808-1.2481 4.6768-0.74388 1.4505 0.43126 2.6771 1.5037 2.2305 1.9502-0.19564 0.19564-0.5651 0.082-1.288-0.39644-1.8309-1.2116-3.7739-1.1062-5.4394 0.29528-1.0797 0.90848-1.5156 1.8845-1.5156 3.393 0 1.5155 0.43613 2.4847 1.5337 3.4083 1.5961 1.343 3.5558 1.396 5.5825 0.15087 1.0464-0.64289 1.6771-0.30901 0.94479 0.50016-1.1165 1.2338-4.1411 1.7167-5.8917 0.94087zm16.463-0.0473c-2.3945-1.0384-3.6757-3.6807-3.0498-6.2897 0.23941-0.99797 0.60151-1.6005 1.5046-2.5035 2.0524-2.0524 4.731-2.2368 6.9517-0.47854 0.51815 0.41026 1.0026 0.74591 1.0766 0.74591 0.07396 0 0.16683-1.3494 0.20638-2.9987 0.0591-2.4635 0.14024-2.9988 0.45472-2.9988 0.33117 0 0.38282 0.96375 0.38282 7.1425 0 6.5994-0.03395 7.149-0.44662 7.2285-0.32974 0.0635-0.44662-0.082-0.44662-0.55567 0-0.92204-0.34675-1.0071-1.0476-0.25688-0.33623 0.35993-0.92145 0.81579-1.3005 1.013-0.89809 0.46727-3.1558 0.442-4.2857-0.0479zm4.5153-1.159c3.0604-1.8809 2.564-6.7274-0.82148-8.0204-2.1069-0.80462-4.4389 0.15729-5.4513 2.2485-0.67687 1.3982-0.68614 2.5386-0.03165 3.8906 1.1651 2.4068 4.0491 3.2674 6.3044 1.8813zm7.4921 0.99079c-0.59781-0.31612-1.4485-1.0739-1.8904-1.684-0.73614-1.0162-0.80352-1.2745-0.80352-3.0806 0-1.7302 0.08711-2.103 0.71205-3.0474 1.3058-1.9733 3.4677-2.8469 5.7699-2.3317 2.6402 0.59084 4.7143 3.5426 4.2454 6.0419-0.5489 2.9259-2.5873 4.6766-5.4452 4.6766-1.0654 0-1.8169-0.16687-2.5882-0.57477zm4.8392-0.99187c2.5267-1.4138 2.9655-4.8894 0.88035-6.9745-2.1597-2.1597-5.719-1.5676-7.1602 1.1911-0.46268 0.88561-0.46349 3.0932-0.0015 3.9811 1.216 2.337 3.9326 3.1165 6.2814 1.8022zm7.3565 1.0509c-1.6951-0.89549-3.0222-3.0436-3.0222-4.8917 0-3.1016 3.5071-6.0624 6.4329-5.4307 1.1453 0.24727 2.7494 1.0842 2.9175 1.5222 0.30875 0.80459-0.22536 0.83357-1.6351 0.0887-1.1662-0.61616-1.6831-0.74836-2.5518-0.65259-2.4586 0.27106-4.3437 2.5593-4.0746 4.9461 0.37416 3.3196 3.9519 5.0456 6.8897 3.3239 1.4174-0.83063 1.5224-0.84042 1.4183-0.132-0.22088 1.5034-4.3473 2.297-6.3746 1.2261zm14.802 0.0137c-1.6989-0.92252-3.0251-3.068-3.0208-4.8871 0.0045-2.23 1.765-4.566 3.9228-5.2076 4.7183-1.4028 8.7222 3.4994 6.3771 7.808-1.0146 1.8642-2.3039 2.639-4.5328 2.7243-1.4187 0.0543-2.0157-0.0408-2.7463-0.43761zm4.6848-0.9355c1.1273-0.57039 2.0537-2.0076 2.1868-3.3925 0.1569-1.6329-0.28694-2.8847-1.3555-3.8229-2.3338-2.0491-5.5727-1.4687-6.9432 1.2441-0.71558 1.4165-0.72786 2.5917-0.0418 4.0087 1.1063 2.2852 3.8112 3.1479 6.1538 1.9626zm-9.6273 0.83098c-1.2092-0.53456-1.4717-1.4128-1.5982-5.3465-0.08654-2.6906-0.19739-3.5607-0.46681-3.6641-0.46906-0.17999-0.45101-0.75452 0.0295-0.9389 0.28946-0.11108 0.38282-0.5794 0.38282-1.9205 0-1.9989 0.15006-2.581 0.66533-2.581 0.27349 0 0.35552 0.45928 0.35552 1.9907 0 2.1199 0.21989 2.6032 1.1844 2.6032 1.2016 0 0.8522 0.88439-0.41881 1.0602-0.63092 0.0873-0.63891 0.11955-0.71686 2.8956-0.09992 3.5585 0.17679 4.5795 1.4015 5.1713 0.50458 0.24385 0.9302 0.5582 0.94583 0.69856 0.04384 0.39367-0.90668 0.41066-1.7643 0.0315zm-42.572-0.074c-0.09358-0.0936-0.17014-2.2042-0.17014-4.6902 0-3.47 0.07957-4.5861 0.3425-4.8043 0.18837-0.15633 0.41806-0.20868 0.51043-0.11632 0.09235 0.0924 0.16793 2.3309 0.16793 4.9744 0 3.8353-0.06874 4.8065-0.34028 4.8065-0.18716 0-0.41685-0.0766-0.51043-0.17014zm2.7921-0.23356c-0.26922-0.70157-0.1715-8.5313 0.11311-9.0631 0.58424-1.0917 0.75283-0.0541 0.75283 4.6328 0 3.9617-0.06417 4.834-0.35551 4.834-0.19553 0-0.42523-0.18166-0.51043-0.4037zm54.319 0.0761c-0.0691-0.18017-0.0942-2.391-0.0558-4.9128 0.0591-3.8746 0.12926-4.5852 0.45275-4.5852 0.21055 0 0.41951 0.2584 0.46436 0.57423 0.10155 0.71503 0.12269 0.71397 1.2673-0.0638 1.058-0.71891 3.0863-0.77756 3.0863-0.16419 0 0.20787-0.79521 0.34665-1.1812 0.42559-1.095 0.22393-1.8812 0.6961-2.4635 1.4796-0.4682 0.62994-0.54636 1.1493-0.62408 4.1472-0.0716 2.764-0.15962 3.4271-0.45462 3.4271-0.20118 0-0.42236-0.14742-0.49151-0.3276zm-57.113-11.804c-0.23311-0.60748-0.18699-1.7199 0.08945-2.1571 0.40756-0.64466 0.90903 0.26504 0.8208 1.475-0.08233 1.1291-0.62737 1.4193-0.91025 0.68211zm2.7933-0.26677c-0.2202-0.87736 0.06895-2.204 0.4525-2.0761 0.38485 0.12828 0.679 2.5338 0.29484 2.6618-0.15871 0.05291-0.65321-0.21067-0.74734-0.58572z"/>
   <path id="path4763" fill="#333" d="m57.408 77.572c-12.478-0.522-15.359-0.461-15.872-0.574-5.6019-1.2368 20.727-0.98945 29.952-0.98945 14.848 0 16.327-0.47573 18.602-1.5769 3.0467-1.4749 4.206-3.2502 4.7676-6.803 0.24222-1.5323 0.31885-12.265 0.17029-23.85l-0.2701-21.064h-23.401c-23.344 0-23.405 0.0029-25.255 1.2622-2.5771 1.7539-3.7768 3.711-4.3302 6.5752-0.25978 1.3447-0.67508 12.596-0.68851 24.887-0.01924 17.619-0.01321 21.301-0.5661 21.117-0.95512-0.31821-0.28352-44.594 0.6428-48.059 0.79141-2.9605 3.5237-6.6281 6.5557-7.4446 1.4284-0.38463 10.469-0.54202 25.683-0.44713l23.478 0.14645 0.14643 23.823 0.14643 20.705-0.05866 2.0778c-0.15103 5.3493-2.2021 10.001-10.384 10.346-5.6822 0.23922-11.562 0.47922-22.199 0.14011zm-3.4478-12.433c0-0.42441 2.3751-5.7455 3.1043-7.4904 0.77144-1.8459 1.0708-1.4185-2.6392-1.3226-1.6407 0.0424-2.1481-0.18284-2.1481-0.81134 0-0.73107 0.96671-0.72587 6.4534-0.70122 8.3708 0.0376 9.7844 1.3401 4.5022 1.4927l-3.7587 0.1086-2.0444 4.8678c-1.0767 2.5637-2.2879 4.6281-2.709 4.6281-0.41828 0-0.76051-0.34725-0.76051-0.77168zm21.409-12.136c-6.037-14.351-6.659-16.27-7.258-16.25-0.79876 1.4934-1.8832 4.5496-2.6875 6.1607-2.0883 4.1834-3.8263 7.2238-4.3808 5.867-0.48853-1.1955 6.0489-15.696 6.8258-16.176 0.30274-0.18711 0.81412-0.02244 1.1364 0.36586 0.77644 0.93556 13.566 31.324 13.566 32.234 0 0.38872-0.38824 1.0423-1.1397 0.80264-0.434-0.14-2.759-5.152-6.062-13.005zm-22.116-2.844c-0.71073-1.15 2.0727-1.0607 7.4392-1.0607s8.0822 1.0971 6.4901 1.603c-0.44343 0.14091-2.5484 0.31862-6.4223 0.31862s-7.2624-0.4652-7.507-0.86099z"/>
   <path id="5" fill="#eee" d="m91.987 28.276 0.13957-7.7475c0.069-6.122-2.874-10.394-6.148-14.535l31.891 29.341c-4.2005-2.4542-8.797-6.6596-16.274-6.877l-9.6058-0.18159z"/>
   <path id="6" fill="url(#F-3-5)" d="m91.044 27.953 0.14738-7.99c0.074-6.313-3.034-10.719-6.491-14.99l33.38 30.26c-4.4356-2.531-9.0018-6.868-16.897-7.0922z"/>
  </g>
 </g>
</svg>
