<?xml version="1.0" encoding="UTF-8" standalone="no"?>
<svg
   xmlns:dc="http://purl.org/dc/elements/1.1/"
   xmlns:cc="http://creativecommons.org/ns#"
   xmlns:rdf="http://www.w3.org/1999/02/22-rdf-syntax-ns#"
   xmlns:svg="http://www.w3.org/2000/svg"
   xmlns="http://www.w3.org/2000/svg"
   xmlns:xlink="http://www.w3.org/1999/xlink"
   version="1.1"
   id="svg4271"
   viewBox="0 0 5492.126 956.69291"
   height="270mm"
   width="1550mm">
  <defs
     id="defs4273">
    <linearGradient
       x1="1997.2"
       y1="7.1292"
       gradientTransform="matrix(1,0,0,0.92197,9.2753e-5,17.158)"
       x2="1997.2"
       gradientUnits="userSpaceOnUse"
       xlink:href="#linearGradient36365"
       y2="350.97"
       id="linearGradient40824" />
    <linearGradient
       id="linearGradient36365">
      <stop
         offset="0"
         style="stop-color:#102240"
         id="stop36367" />
      <stop
         offset=".5"
         style="stop-color:#006680"
         id="stop36369" />
      <stop
         offset="1"
         style="stop-color:#16b0b6;stop-opacity:.875"
         id="stop36371" />
    </linearGradient>
    <linearGradient
       x1="1734.6"
       y1="133.69"
       gradientTransform="translate(-0.015507,0.0021826)"
       x2="1734.6"
       gradientUnits="userSpaceOnUse"
       xlink:href="#linearGradient35294"
       y2="189.92999"
       id="linearGradient40826" />
    <linearGradient
       id="linearGradient35294">
      <stop
         offset="0"
         style="stop-color:#032f40"
         id="stop35296" />
      <stop
         offset="1"
         style="stop-color:#00ffff"
         id="stop35298" />
    </linearGradient>
    <linearGradient
       x1="1918.4"
       y1="-20.709999"
       gradientTransform="translate(-0.0060604,0.0021826)"
       x2="1918.4"
       gradientUnits="userSpaceOnUse"
       xlink:href="#linearGradient36365"
       y2="167.78"
       id="linearGradient40820" />
    <linearGradient
       x1="1773.7"
       y1="89.793999"
       gradientTransform="translate(-0.0060604,0.0021826)"
       x2="1773.7"
       gradientUnits="userSpaceOnUse"
       xlink:href="#linearGradient35294"
       y2="169.83"
       id="linearGradient40822" />
  </defs>
  <metadata
     id="metadata4276">
    <rdf:RDF>
      <cc:Work
         rdf:about="">
        <dc:format>image/svg+xml</dc:format>
        <dc:type
           rdf:resource="http://purl.org/dc/dcmitype/StillImage" />
        <dc:title></dc:title>
      </cc:Work>
    </rdf:RDF>
  </metadata>
  <g
     transform="translate(0,-95.669291)"
     id="layer1">
    <g
       id="g36373"
       transform="matrix(3.5783908,0,0,3.5783192,-5000.1178,185.51999)">
      <path
         id="rect36192"
         style="fill:url(#linearGradient40820)"
         d="m 1400.2,-22.748 0,88.344 281.44,0 c 14.694,0 26.531,11.837 26.531,26.531 l 0,63.625 c 0,14.694 11.837,26.531 26.531,26.531 l 382.66,0 96.688,0 382.66,0 c 14.694,0 26.531,-11.837 26.531,-26.531 l 0,-63.625 c 0,-14.694 11.837,-26.531 26.531,-26.531 l 281.44,0 0,-88.344 -443.31,0 -273.84,0 -96.688,0 -273.84,0 z" />
      <path
         id="path36207"
         style="fill:url(#linearGradient40822)"
         d="m 1400.2,60.44 0,5.1562 281.44,0 c 14.694,0 26.531,11.837 26.531,26.531 l 0,-6.7188 c 0,-13.834 -11.837,-24.969 -26.531,-24.969 l -281.44,0 z m 1249.6,0 c -14.694,0 -26.531,11.135 -26.531,24.969 l 0,6.7188 c 0,-14.694 11.837,-26.531 26.531,-26.531 l 281.44,0 0,-5.1562 -281.44,0 z m -941.59,84.875 0,10.438 c 0,14.694 11.837,26.531 26.531,26.531 l 382.66,0 96.688,0 382.66,0 c 14.694,0 26.531,-11.837 26.531,-26.531 l 0,-10.438 c 0,13.834 -11.837,24.969 -26.531,24.969 l -382.66,0 -96.688,0 -382.66,0 c -14.694,0 -26.531,-11.135 -26.531,-24.969 z" />
    </g>
    <g
       transform="matrix(3.5783908,0,0,-3.5783192,-5052.0832,1401.4865)"
       id="g35667">
      <path
         d="m 1414.7,102.92 0,116.97 1531,0 0,-116.97 -269.93,0 c -11.36,0 -20.5,8.4265 -20.5,18.9 l 0,20.051 0,30.282 c 0,10.474 -9.1395,18.9 -20.5,18.9 l -230.71,0 -189.62,0 -488.8,0 c -11.36,0 -19.809,-8.4492 -20.5,-18.9 l 0,-30.282 0,-20.051 c 0,-10.474 -9.1395,-18.9 -20.5,-18.9 z"
         style="fill:url(#linearGradient40824)"
         id="path34798" />
      <path
         style="fill:url(#linearGradient40826)"
         d="m 1414.7,102.91 0,12 269.91,0 c 11.36,0 20.5,7.5693 20.5,16.969 l 0,-10.062 c 0,-10.474 -9.1401,-18.906 -20.5,-18.906 z m 1261.1,0 c -11.36,0 -21.54,8.484 -20.5,18.906 l 0,7.5 c 0.8842,-8.1331 10.205,-14.406 20.5,-14.406 l 269.94,0 0,-12 z m -970.66,69.25 0,10.906 c 0,9.3995 9.1396,16.938 20.5,16.938 l 488.81,0 189.62,0 230.72,0 c 11.36,0.0891 20.5,-7.538 20.5,-16.938 l 0,-10.906 c 0,10.474 -9.1403,19.006 -20.5,18.906 l -230.72,0 -189.62,0 -488.81,0 c -11.36,0 -20.5,-8.4323 -20.5,-18.906 z"
         id="path34913" />
    </g>
  </g>
</svg>
