<?xml version="1.0" encoding="UTF-8" standalone="no"?>
<svg
   xmlns:dc="http://purl.org/dc/elements/1.1/"
   xmlns:cc="http://creativecommons.org/ns#"
   xmlns:rdf="http://www.w3.org/1999/02/22-rdf-syntax-ns#"
   xmlns:svg="http://www.w3.org/2000/svg"
   xmlns="http://www.w3.org/2000/svg"
   xmlns:xlink="http://www.w3.org/1999/xlink"
   version="1.1"
   id="svg4271"
   viewBox="0 0 5492.126 956.69291"
   height="270mm"
   width="1550mm">
  <defs
     id="defs4273">
    <linearGradient
       x1="1997.2"
       y1="7.1292"
       gradientTransform="matrix(3.5783908,0,0,-3.299103,-5090.3111,805.41312)"
       x2="1997.2"
       gradientUnits="userSpaceOnUse"
       xlink:href="#linearGradient36365"
       y2="350.97"
       id="linearGradient40824" />
    <linearGradient
       id="linearGradient36365">
      <stop
         offset="0"
         style="stop-color:#102240"
         id="stop36367" />
      <stop
         offset=".5"
         style="stop-color:#006680"
         id="stop36369" />
      <stop
         offset="1"
         style="stop-color:#16b0b6;stop-opacity:.875"
         id="stop36371" />
    </linearGradient>
    <linearGradient
       x1="1734.6"
       y1="133.69"
       gradientTransform="matrix(3.5783908,0,0,-4.1032806,-5039.3959,943.1245)"
       x2="1734.6"
       gradientUnits="userSpaceOnUse"
       xlink:href="#linearGradient35294"
       y2="189.92999"
       id="linearGradient40826" />
    <linearGradient
       id="linearGradient35294">
      <stop
         offset="0"
         style="stop-color:#032f40"
         id="stop35296" />
      <stop
         offset="1"
         style="stop-color:#00ffff"
         id="stop35298" />
    </linearGradient>
    <linearGradient
       x1="1918.4"
       y1="-20.709999"
       gradientTransform="matrix(3.5783908,0,0,3.5783192,-5000.1395,89.858509)"
       x2="1918.4"
       gradientUnits="userSpaceOnUse"
       xlink:href="#linearGradient36365"
       y2="167.78"
       id="linearGradient40820" />
    <linearGradient
       x1="1773.7"
       y1="89.793999"
       gradientTransform="matrix(3.5783908,0,0,3.5783192,-5000.1395,89.858509)"
       x2="1773.7"
       gradientUnits="userSpaceOnUse"
       xlink:href="#linearGradient35294"
       y2="169.83"
       id="linearGradient40822" />
    <linearGradient
       x1="1997.2"
       y1="7.1292"
       gradientTransform="matrix(3.5783908,0,0,-3.299103,-5039.6158,765.632)"
       x2="1997.2"
       gradientUnits="userSpaceOnUse"
       xlink:href="#linearGradient36365"
       y2="350.97"
       id="linearGradient40824-3" />
  </defs>
  <metadata
     id="metadata4276">
    <rdf:RDF>
      <cc:Work
         rdf:about="">
        <dc:format>image/svg+xml</dc:format>
        <dc:type
           rdf:resource="http://purl.org/dc/dcmitype/StillImage" />
        <dc:title></dc:title>
      </cc:Work>
    </rdf:RDF>
  </metadata>
  <path
     style="fill:url(#linearGradient40826)"
     d="m 23.009016,520.86491 0,-49.23937 965.843454,0 c 40.65053,0 73.35703,-31.05895 73.35703,-69.62856 l 0,41.28721 c 0,42.97776 -32.7068,77.57662 -73.35703,77.57662 z m 4512.708684,0 c -40.6505,0 -77.0785,-34.81224 -73.357,-77.57662 l 0,-30.77462 c 3.164,33.37241 36.5175,59.11187 73.357,59.11187 l 965.9508,0 0,49.23937 z m -3473.4008,-284.15218 0,-44.75037 c 0,-38.56879 32.705,-69.50137 73.357,-69.50137 l 1749.1532,0 678.5345,0 825.6063,0 c 40.6505,-0.36561 73.357,30.93053 73.357,69.50137 l 0,44.75037 c 0,-42.97776 -32.7076,-77.98696 -73.357,-77.57663 l -825.6063,0 -678.5345,0 -1749.1532,0 c -40.6505,0 -73.357,34.6001 -73.357,77.57663 z"
     id="path34913" />
  <path
     d="m 22.733258,458.74819 0,-418.555997 5478.516442,0 0,418.555997 -965.915,0 c -40.6506,0 -73.3571,-30.15271 -73.3571,-67.63023 l 0,-71.74888 0,-108.35867 c 0,-37.47931 -32.7047,-67.63023 -73.357,-67.63023 l -825.5705,0 -678.5345,0 -1749.1174,0 c -40.6505,0 -70.8843,30.23394 -73.357,67.63023 l 0,108.35867 0,71.74888 c 0,37.47931 -32.7047,67.63023 -73.35713,67.63023 z"
     style="fill:url(#linearGradient40824-3)"
     id="path34798" />
</svg>
