<?xml version="1.0" encoding="UTF-8" standalone="no"?>
<svg id="svg4181" xmlns:rdf="http://www.w3.org/1999/02/22-rdf-syntax-ns#" xmlns="http://www.w3.org/2000/svg" height="48mm" width="48mm" version="1.1" xmlns:cc="http://creativecommons.org/ns#" xmlns:xlink="http://www.w3.org/1999/xlink" viewBox="0 0 170.07874 170.07874" xmlns:dc="http://purl.org/dc/elements/1.1/">
 <defs id="defs4183">
  <radialGradient id="D" gradientUnits="userSpaceOnUse" cy="48.735" cx="25.712" gradientTransform="matrix(3.786 -.84848 .33508 1.4952 -28.129 988.17)" r="21.856">
   <stop id="P" stop-color="#2e3436" offset="0"/>
   <stop id="Q" stop-color="#2e3436" stop-opacity="0" offset="1"/>
  </radialGradient>
  <radialGradient id="E" xlink:href="#B" gradientUnits="userSpaceOnUse" cy="12.06" cx="13.559" gradientTransform="matrix(2.1889 9.0775 -13.432 3.2389 175.48 747.1)" r="16.219"/>
  <linearGradient id="B">
   <stop id="N" stop-color="#ad7fa8" offset="0"/>
   <stop id="O" stop-color="#75507b" offset="1"/>
  </linearGradient>
  <linearGradient id="F" gradientUnits="userSpaceOnUse" x2="0" gradientTransform="matrix(3.6357 0 0 3.5683 -1.7279 880.33)" y1="2.438" y2="43.34">
   <stop id="L" stop-color="#fff" stop-opacity=".8" offset="0"/>
   <stop id="M" stop-color="#fff" stop-opacity="0" offset="1"/>
  </linearGradient>
  <filter id="I" style="color-interpolation-filters:sRGB" height="1.302" width="1.321" y="-0.151" x="-.16">
   <feGaussianBlur id="R" stdDeviation="0.5327"/>
  </filter>
  <radialGradient id="G" xlink:href="#B" gradientUnits="userSpaceOnUse" cy="8.609" cx="34.13" gradientTransform="matrix(6.8547 7.4505e-7 -7.4301e-7 7.5262 -113.55 847.6)" r="3.03"/>
  <radialGradient id="radialGradient4846" gradientUnits="userSpaceOnUse" cy="18.754" cx="29.829" gradientTransform="matrix(3.6416 -3.4333 1.0674 1.1322 -103.3 108.39)" r="12.5">
   <stop id="stop4842" stop-color="#44274c" offset="0"/>
   <stop id="stop4844" stop-color="#44274c" stop-opacity="0" offset="1"/>
  </radialGradient>
  <radialGradient id="radialGradient4854" gradientUnits="userSpaceOnUse" cy="886.02" cx="119.64" gradientTransform="matrix(2.7072 1.8948 -.45013 .66146 196.53 75.421)" r="14.402">
   <stop id="stop4850" stop-color="#44274c" offset="0"/>
   <stop id="stop4852" stop-color="#44274c" stop-opacity="0" offset="1"/>
  </radialGradient>
 </defs>
 <g id="layer1" transform="translate(0 -882.28)">
  <path id="1" opacity="0.54" d="m170.35 1039.2c-0.0114 3.821-36.458 10.454-83.283 10.454s-86.302-6.6325-86.313-10.454c-0.011363-3.8223 37.957-6.9213 84.798-6.9213s84.81 3.099 84.798 6.9213z" fill="url(#D)"/>
  <path id="2" fill="#666" d="m35.363 887.1c-6.0885 0-10.968 4.8339-10.968 10.866v130.5c0 6.032 4.8793 10.866 10.968 10.866h100.37c6.0885 0 10.968-4.8338 10.968-10.866v-116.67l-23.93-24.695h-87.412z"/>
  <path id="3" fill="url(#E)" d="m35.363 889.32c-4.1075 0-7.312 3.2045-7.312 7.312v131.73c0 4.1075 3.2045 7.3122 7.312 7.3122h100.37c4.1075 0 7.312-3.2047 7.312-7.3122v-116.22l-21.825-22.822h-85.861z"/>
  <path id="4" opacity=".8" stroke-linejoin="round" d="m34.06 890.14c-3.2637 0-5.6807 2.3722-5.6807 5.5754v132.58c0 3.2035 2.417 5.5756 5.6807 5.5756h102.93c3.2641 0 5.6807-2.3721 5.6807-5.5756v-116.42l-21.36-21.744h-87.256z" stroke="url(#F)" stroke-linecap="square" stroke-width="3.6018" fill="none"/>
  <path id="5" opacity="0.16" d="m56.821 910.89v6.875c0 0.9566 0.6766 1.5938 1.7187 1.5938h6.25v-1.8125l-6.9375-6.6563h-1.0312z" transform="matrix(3.4773 0 0 3.4773 -82.163 -2278.2)" filter="url(#I)" fill="#2e3436"/>
  <path id="6" d="m120.27 888.28v17.449c0 3.2026 2.4637 5.7011 5.6216 5.7011h16.524v-3.7145l-18.398-19.436h-3.7478z" fill="url(#radialGradient4854)"/>
  <path id="7" fill="url(#G)" d="m120.37 889.58v18.993c0 2.3041 1.4457 3.821 3.6416 3.821h17.137l-20.778-22.814z"/>
  <path id="8" opacity=".8" d="m123.22 893.89v14.181c0 1.3376 0.65658 1.9942 1.9942 1.9942h13.627l-15.621-16.175z" stroke-linecap="square" stroke-width="3.5452" fill="none"/>
  <g id="9" fill="url(#radialGradient4846)" transform="matrix(-3.5452 0 0 3.5452 174.83 879.11)">
   <path id="J" opacity=".5" d="m24.68 13.484c-6.9865 0-12.5 4.4881-12.5 9.8265 0 3.9512 2.9959 7.4022 7.4232 8.9591 0.27803 0.09685 0.46376 0.35973 0.46217 0.65415-0.01871 1.8926-0.62259 3.113-1.2656 4.0529 2.1782-0.55856 3.4734-2.0889 3.8538-3.2992 0.09308-0.29934 0.37656-0.49807 0.6897-0.4835 8.3631 0.39351 13.837-4.5453 13.837-9.8834 0-5.3384-5.5135-9.8265-12.5-9.8265z"/>
   <path id="K" d="m24.68 12.484c-6.9865 0-12.5 4.4881-12.5 9.8265 0 3.9512 2.9959 7.4022 7.4232 8.9591 0.27803 0.09685 0.46376 0.35973 0.46217 0.65415-0.01871 1.8926-0.62259 3.113-1.2656 4.0529 2.1782-0.55856 3.4734-2.0889 3.8538-3.2992 0.09308-0.29934 0.37656-0.49807 0.6897-0.4835 8.3631 0.39351 13.837-4.5453 13.837-9.8834 0-5.3384-5.5135-9.8265-12.5-9.8265z"/>
  </g>
 </g>
</svg>
