<?xml version="1.0" encoding="UTF-8" standalone="no"?>
<svg
   xmlns:dc="http://purl.org/dc/elements/1.1/"
   xmlns:cc="http://creativecommons.org/ns#"
   xmlns:rdf="http://www.w3.org/1999/02/22-rdf-syntax-ns#"
   xmlns:svg="http://www.w3.org/2000/svg"
   xmlns="http://www.w3.org/2000/svg"
   id="svg4171"
   height="288mm"
   viewBox="0 0 1658.2677 1020.4732"
   width="468mm"
   version="1.1">
  <metadata
     id="metadata9">
    <rdf:RDF>
      <cc:Work
         rdf:about="">
        <dc:format>image/svg+xml</dc:format>
        <dc:type
           rdf:resource="http://purl.org/dc/dcmitype/StillImage" />
        <dc:title></dc:title>
      </cc:Work>
    </rdf:RDF>
  </metadata>
  <defs
     id="defs7" />
  <g
     id="layer1"
     transform="matrix(1.0947428,-0.06590008,0.07183879,1.0307143,-90.068902,176.57172)"
     style="fill:#8a6f91">
    <path
       id="path4702-8-1"
       d="m 106.32,135.53 c 0.48692,0.218 1.2547,3.3266 2.7132,10.378 9.0788,43.9 24.934,74.916 49.467,96.732 31.782,28.262 72.272,38.237 136.94,33.755 22.6,-1.5665 97.126,-17.567 131.91,-28.313 64.31,-19.867 112.57,-37.301 233.77,-84.522 217.56,-84.76 285.77,-109.69 383.38,-140.06 77.296,-24.046 129.64,-37.844 205.42,-54.15 102.57,-22.074 186.26,-32.474 278.44,-34.689 20.082,-0.48246 69.808,-0.13629 70.585,0.50575 0.6073,0.50141 -5.6463,68.233 -6.3129,68.377 -0.4381,0.095789 -7.5477,-2.6148 -15.788,-6.0129 -20.725,-8.5468 -48.226,-16.792 -72.567,-21.791 -128.57,-26.411 -294.07,-2.7694 -516.22,73.753 -87.245,30.051 -168.12,61.752 -318.33,124.75 -121.4,50.917 -158.72,66.407 -190.04,78.94 -69.35,27.743 -123.64,47.193 -169.29,60.696 -25.12,7.4286 -77.541,19.001 -94.102,20.771 -37.484,4.0052 -64.74,1.559 -86.158,-7.7224 -10.616,-4.6001 -24.744,-15.607 -29.523,-22.966 l -3.1342,-4.7886 3.7775,-77.842 c 2.0699,-42.828 4.036,-80.319 4.3835,-83.303 0.20092,-1.7269 0.38398,-2.633 0.67609,-2.5018 z m 1099.2,-145.56 c 119.14,-25.326 216.8,-28.996 299.23,-12.009 18.897,3.895 58.219,16.108 73.332,22.786 6.3501,2.8058 12.182,4.9803 12.97,4.8369 1.5828,-0.28629 -0.042,28.029 -3.3066,57.438 l -1.9318,17.407 -11.074,-6.4822 c -34,-19.904 -81.4,-39.929 -121.8,-51.348 -76.8,-21.717 -154,-26.887 -247.7,-16.604 -31.6,3.4569 -121,22.613 -158.1,33.849 -90.11,27.304 -193.15,68.762 -304.9,122.72 -30.997,14.964 -108.39,53.191 -154.44,76.254 -61.875,30.987 -143.03,70.527 -173.45,84.533 -105.14,48.402 -181.17,76.776 -257.12,95.958 -10.975,2.7732 -65.488,13.67 -65.969,13.187 -0.13568,-0.136 0.97052,-24.612 2.4512,-54.401 1.48068,-29.789 2.8377,-58.603 3.0019,-64.03 l 0.29766,-9.8635 7.7339,7.8578 c 10.71,10.814 20.019,16.248 35.91,21.064 43.445,13.167 109.58,3.7831 210.49,-29.846 61.775,-20.586 113.4,-40.907 265.32,-104.53 177.61,-74.4 239.44,-99.347 312.32,-126.05 C 1032.4153,34.745 1123.9153,7.281 1205.4153,-10.05 Z m -78.592,32.176 c 9.9789,-2.1324 19.957,-4.1279 29.988,-5.9949 143.6,-26.724 269.51,-12.597 385.02,43.223 16.177,7.8169 39.245,20.581 42.233,23.353 1.2838,1.1926 0.8159,10.223 -2.2816,43.777 -2.1371,23.246 -3.9993,42.479 -4.1448,42.732 -0.1439,0.25203 -8.0052,-6.6356 -17.468,-15.288 -112.5,-102.89 -233.3,-145.68 -375.2,-132.85 -34.3,3.101 -96.3,16.115 -134.5,28.193 -94.08,29.785 -194.44,78.507 -331.12,160.83 -32.72,19.7 -54.32,33.19 -205.14,128.1 -121.14,76.24 -186.93,114.5 -258.26,150.13 -59.87,29.9 -116.05,53.53 -161.15,67.8 -6.3987,2.0241 -9.9607,2.6566 -10.043,1.8152 -0.06982,-0.71718 1.1918,-25.993 2.7667,-56.166 1.5758,-30.173 2.8378,-57.536 2.844,-60.813 l 0.02373,-5.9592 36.188,-7.278 c 40.023,-8.0565 66.063,-15.073 106.78,-28.687 88.197,-29.496 171.83,-66.714 350.74,-156.2 107.74,-53.89 172.78,-85.508 218.99,-106.46 131.37,-59.567 227.27997,-93.574 323.77997,-114.24 z m -13.801,12.708 c 51.983,-11.406 101.05,-15.553 148.88,-12.792 108.48,6.2602 212.03,53.606 299.95,137.12 l 15.752,14.952 -4.1099,44.213 c -2.2657,24.318 -4.3546,44.266 -4.5991,44.317 -0.244,0.0534 -5.1869,-5.5906 -11,-12.536 -42.4,-50.67 -94.9,-99.57 -140.3,-130.63 -58.4,-39.933 -118.8,-64.292 -180.6,-72.831 -116,-16.013 -241.72,22.284 -390.8,119.1 -61.91,40.2 -128.43,89.65 -216.55,160.9 -14.637,11.835 -48.995,39.662 -76.352,61.884 -117.47,95.409 -166.7,133.01 -234.72,179.21 -78.604,53.38 -147.19,89.624 -213.32,112.73 -7.6599,2.6771 -16.853,5.3778 -20.43,6.0192 l -6.506,1.1837 1.3349,-26.749 c 0.73424,-14.712 2.1809,-43.108 3.1747,-63.074 l 1.7942,-36.275 14.544,-4.6789 c 55.198,-17.73 135.19,-53.49 206.63,-92.34 78.56,-42.71 105.86,-59.3 319.2,-193.78 156.04,-98.36 248.14,-149.05 342.48,-188.55 51.62,-21.605 99.72,-37.34 145.62,-47.404 z m -17.383,21.289 c 38.612,-8.268 43.704,-8.9586 73.818,-10.315 84.785,-3.8185 170.16,22.612 248.36,76.888 43.976,30.52 96,79.089 137.73,128.61 l 13.027,15.451 -3.0932,34.694 c -1.6943,19.076 -3.9737,45.272 -5.0622,58.186 l -1.9652,23.451 -9.3417,-17.066 c -70.7,-129.6 -146.3,-217.61 -227.6,-265.08 -39.8,-23.222 -87.4,-37.679 -131.4,-39.827 -111.2,-5.438 -232.2,50.237 -393.65,181.09 -60.58,49.09 -102.23,86.07 -257.4,228.59 -109.27,100.36 -169.14,152.59 -232.22,202.65 -81.22,64.47 -137.76,103.03 -210.35,143.45 -12.332,6.8648 -23.157,12.644 -24.059,12.873 -0.93654,0.23852 -1.4379,-1.1705 -1.1874,-3.3018 0.24129,-2.0529 1.8917,-33.117 3.6742,-69.013 1.7824,-35.893 3.4896,-65.54 3.8067,-65.897 0.31674,-0.35505 7.0491,-2.6853 14.958,-5.181 70.94,-22.385 148.98,-63.579 240.47,-126.97 66.68,-46.2 110.31,-79.925 244.06,-188.69 24.28,-19.744 55.798,-45.276 70.039,-56.686 171.4,-137.36 279.28,-204.57 390.37,-243.28 13.94,-4.856 26.582,-8.1045 57.085,-14.638 z"
       style="opacity:0.74074001;fill:#8a6f91" />
  </g>
  <text
     id="text4135"
     y="473.96225"
     x="829.41077"
     style="font-style:normal;font-weight:normal;font-size:100.00008392px;line-height:125%;font-family:sans-serif;letter-spacing:0px;word-spacing:0px;fill:#333333;fill-opacity:1;stroke:none;stroke-width:1px;stroke-linecap:butt;stroke-linejoin:miter;stroke-opacity:1;"
     xml:space="preserve"><tspan
       style="font-style:normal;font-variant:normal;font-weight:bold;font-stretch:normal;font-size:100.00008392px;font-family:sans-serif;-inkscape-font-specification:'sans-serif Bold';text-align:center;text-anchor:middle;fill:#333333;"
       y="473.96225"
       x="829.41077"
       id="tspan4137">netkom.se</tspan><tspan
       id="tspan4139"
       style="font-style:normal;font-variant:normal;font-weight:bold;font-stretch:normal;font-size:90.00006866px;font-family:sans-serif;-inkscape-font-specification:'sans-serif Bold';text-align:center;text-anchor:middle;fill:#333333;"
       y="588.99487"
       x="829.41077">internet och kommunikation</tspan></text>
</svg>
