<?xml version="1.0" encoding="UTF-8" standalone="no"?>
<!-- Created with Inkscape (http://www.inkscape.org/) -->

<svg
   xmlns:dc="http://purl.org/dc/elements/1.1/"
   xmlns:cc="http://creativecommons.org/ns#"
   xmlns:rdf="http://www.w3.org/1999/02/22-rdf-syntax-ns#"
   xmlns:svg="http://www.w3.org/2000/svg"
   xmlns="http://www.w3.org/2000/svg"
   xmlns:sodipodi="http://sodipodi.sourceforge.net/DTD/sodipodi-0.dtd"
   xmlns:inkscape="http://www.inkscape.org/namespaces/inkscape"
   id="svg4776"
   sodipodi:docname="provider-internet.svg"
   viewBox="0 0 286.91 286.91"
   version="1.1"
   inkscape:version="0.91 r13725">
  <defs
     id="defs16" />
  <sodipodi:namedview
     id="base"
     bordercolor="#666666"
     inkscape:pageshadow="2"
     inkscape:window-y="0"
     pagecolor="#ffffff"
     inkscape:window-height="1388"
     inkscape:window-maximized="1"
     inkscape:zoom="1.4"
     inkscape:window-x="28"
     showgrid="false"
     borderopacity="1.0"
     inkscape:current-layer="layer1"
     inkscape:cx="79.792069"
     inkscape:cy="170.39679"
     inkscape:window-width="2532"
     inkscape:pageopacity="0.0"
     inkscape:document-units="px" />
  <g
     id="layer1"
     inkscape:label="Layer 1"
     inkscape:groupmode="layer"
     transform="translate(-231.54 -388.91)">
    <path
       id="path3794"
       sodipodi:rx="170.99677"
       sodipodi:ry="137.74739"
       style="color:#000000;fill:#67536c"
       sodipodi:type="arc"
       d="M 484.49081,498.52267 A 170.99677,137.74739 0 0 1 313.49405,636.27007 170.99677,137.74739 0 0 1 142.49728,498.52267 170.99677,137.74739 0 0 1 313.49405,360.77528 170.99677,137.74739 0 0 1 484.49081,498.52267 Z"
       transform="matrix(.83895 0 0 1.0414 112 13.176)"
       sodipodi:cy="498.52267"
       sodipodi:cx="313.49405" />
    <path
       style="opacity:0;fill:#67536c;fill-opacity:1"
       d="M 127.79207,285.72557 C 103.15632,282.95577 77.551904,272.85977 58.129734,258.25721 28.326011,235.84928 9.407402,205.1245 2.2986205,167.58464 0.58209268,158.52005 0.24205039,134.42916 1.6846805,124.08899 10.094991,63.8074 55.154334,15.636309 114.67738,3.2931395 c 51.24447,-10.6264576 104.64698,7.9744275 138.4382,48.2200695 17.24695,20.541258 28.43211,45.964565 32.21116,73.214291 1.47054,10.60362 1.09689,32.99892 -0.71279,42.7232 -3.80672,20.45534 -10.81074,38.19162 -21.49018,54.41965 -14.09899,21.42422 -33.40551,38.38701 -56.98046,50.06325 -23.61053,11.69386 -52.21998,16.72991 -78.35124,13.79197 z"
       id="path4160"
       inkscape:connector-curvature="0"
       transform="translate(231.54,388.91)" />
    <path
       style="opacity:0;fill:#67536c;fill-opacity:1"
       d="M 127.79207,285.72557 C 103.15632,282.95577 77.551904,272.85977 58.129734,258.25721 28.326011,235.84928 9.407402,205.1245 2.2986205,167.58464 0.58209268,158.52005 0.24205039,134.42916 1.6846805,124.08899 10.094991,63.8074 55.154334,15.636309 114.67738,3.2931395 c 51.24447,-10.6264576 104.64698,7.9744275 138.4382,48.2200695 17.24695,20.541258 28.43211,45.964565 32.21116,73.214291 1.47054,10.60362 1.09689,32.99892 -0.71279,42.7232 -3.80672,20.45534 -10.81074,38.19162 -21.49018,54.41965 -14.09899,21.42422 -33.40551,38.38701 -56.98046,50.06325 -23.61053,11.69386 -52.21998,16.72991 -78.35124,13.79197 z"
       id="path4162"
       inkscape:connector-curvature="0"
       transform="translate(231.54,388.91)" />
    <path
       style="opacity:0;fill:#67536c;fill-opacity:1"
       d="M 127.79207,285.72557 C 103.15632,282.95577 77.551904,272.85977 58.129734,258.25721 28.326011,235.84928 9.407402,205.1245 2.2986205,167.58464 0.58209268,158.52005 0.24205039,134.42916 1.6846805,124.08899 10.094991,63.8074 55.154334,15.636309 114.67738,3.2931395 c 51.24447,-10.6264576 104.64698,7.9744275 138.4382,48.2200695 17.24695,20.541258 28.43211,45.964565 32.21116,73.214291 1.47054,10.60362 1.09689,32.99892 -0.71279,42.7232 -3.80672,20.45534 -10.81074,38.19162 -21.49018,54.41965 -14.09899,21.42422 -33.40551,38.38701 -56.98046,50.06325 -23.61053,11.69386 -52.21998,16.72991 -78.35124,13.79197 z"
       id="path4164"
       inkscape:connector-curvature="0"
       transform="translate(231.54,388.91)" />
    <g
       id="g3885"
       style="stroke:#ffffff"
       transform="translate(64.594202,42.028424)">
      <ellipse
         ry="102.85714"
         rx="104.28571"
         cy="483.79074"
         cx="318.57144"
         id="path2816"
         style="color:#000000;fill:none;stroke:#ffffff;stroke-width:14.99199963;stroke-linecap:round"
         transform="matrix(0.94025,0,0,0.92745,12.409,42.957)" />
      <path
         inkscape:connector-curvature="0"
         id="path3592"
         sodipodi:nodetypes="cc"
         style="fill:none;stroke:#ffffff;stroke-width:14"
         d="m 230,442.36 168,0" />
      <path
         inkscape:connector-curvature="0"
         id="path3592-2"
         sodipodi:nodetypes="cc"
         style="fill:none;stroke:#ffffff;stroke-width:14"
         d="m 228,538.86 172,0" />
      <path
         inkscape:connector-curvature="0"
         id="path3592-2-5"
         sodipodi:nodetypes="cc"
         style="fill:none;stroke:#ffffff;stroke-width:14"
         d="m 218,491.36 188,0" />
      <path
         inkscape:connector-curvature="0"
         id="path3592-4-4-3"
         sodipodi:nodetypes="cc"
         style="fill:none;stroke:#ffffff;stroke-width:14"
         d="m 310.25,583.11 0,-184" />
      <path
         inkscape:connector-curvature="0"
         id="path3592-4-4-3-0"
         sodipodi:nodetypes="cc"
         style="fill:none;stroke:#ffffff;stroke-width:14"
         d="M 310.25,583.11 C 250,562.36 240,432.36 310.25,399.11" />
      <path
         inkscape:connector-curvature="0"
         id="path3592-4-4-3-8"
         sodipodi:nodetypes="cc"
         style="fill:none;stroke:#ffffff;stroke-width:14"
         d="m 310.25,583.11 c 69.75,-30.75 69.75,-150.75 0,-184" />
    </g>
  </g>
  <metadata
     id="metadata14">
    <rdf:RDF>
      <cc:Work>
        <dc:format>image/svg+xml</dc:format>
        <dc:type
           rdf:resource="http://purl.org/dc/dcmitype/StillImage" />
        <cc:license
           rdf:resource="http://creativecommons.org/licenses/publicdomain/" />
        <dc:publisher>
          <cc:Agent
             rdf:about="http://openclipart.org/">
            <dc:title>Openclipart</dc:title>
          </cc:Agent>
        </dc:publisher>
        <dc:title>Internet Icon</dc:title>
        <dc:date>2010-09-23T04:19:58</dc:date>
        <dc:description />
        <dc:source>https://openclipart.org/detail/86401/internet-icon-by-ben</dc:source>
        <dc:creator>
          <cc:Agent>
            <dc:title>ben</dc:title>
          </cc:Agent>
        </dc:creator>
        <dc:subject>
          <rdf:Bag>
            <rdf:li>Icon</rdf:li>
            <rdf:li>internet</rdf:li>
            <rdf:li>world</rdf:li>
          </rdf:Bag>
        </dc:subject>
      </cc:Work>
      <cc:License
         rdf:about="http://creativecommons.org/licenses/publicdomain/">
        <cc:permits
           rdf:resource="http://creativecommons.org/ns#Reproduction" />
        <cc:permits
           rdf:resource="http://creativecommons.org/ns#Distribution" />
        <cc:permits
           rdf:resource="http://creativecommons.org/ns#DerivativeWorks" />
      </cc:License>
    </rdf:RDF>
  </metadata>
</svg>
